<svg width="62" height="63" viewBox="0 0 62 63" fill="none" xmlns="http://www.w3.org/2000/svg">
<path d="M27.4492 35.3083C28.4593 35.3084 29.4547 35.3476 30.4355 35.4265L31.4121 35.5193C31.8501 35.5663 32.269 35.7254 32.627 35.9822C32.9849 36.2389 33.2702 36.5843 33.4551 36.9841C33.6399 37.3838 33.7177 37.8246 33.6816 38.2634C33.6454 38.7025 33.4959 39.1249 33.248 39.489C31.1989 42.5 29.9991 46.1354 29.999 50.0574C29.9972 52.8386 30.6127 55.5856 31.8008 58.1003V58.1013C31.9835 58.4871 32.0665 58.9125 32.042 59.3386C32.0175 59.7649 31.886 60.1784 31.6602 60.5408C31.4343 60.9032 31.121 61.204 30.749 61.4138C30.3771 61.6236 29.9582 61.7361 29.5312 61.7419C28.8445 61.7521 28.1503 61.7576 27.4492 61.7576C21.0855 61.7576 15.0891 61.3787 10.4521 60.2976L9.54297 60.072C7.32755 59.485 5.27548 58.6697 3.68457 57.491L3.37207 57.2498C1.65921 55.8754 0.500007 53.9782 0.5 51.5828C0.5 49.3347 1.5245 47.1939 2.96582 45.3728L2.9668 45.3718C4.33736 43.6351 6.21307 42.0148 8.4209 40.6121L8.86719 40.3347C13.6789 37.3991 20.238 35.3083 27.4492 35.3083ZM48.7979 36.8347C49.2435 36.8347 49.6819 36.9516 50.0684 37.1736C50.4547 37.3956 50.7765 37.7154 51.001 38.1003L53.7764 42.865L53.8877 43.0554L54.1035 43.1013L59.4893 44.2664C59.9253 44.3607 60.3292 44.5678 60.6602 44.8669C60.9911 45.166 61.2372 45.5472 61.375 45.9714C61.5128 46.3956 61.5373 46.8485 61.4453 47.2849C61.3533 47.7214 61.148 48.1262 60.8506 48.4587L57.1787 52.5671L57.0322 52.7312L57.0537 52.9509L57.6094 58.4373C57.6543 58.8809 57.5815 59.329 57.3994 59.7361C57.2173 60.143 56.9319 60.4955 56.5713 60.7576C56.2106 61.0197 55.7871 61.1827 55.3438 61.2302C54.9004 61.2777 54.452 61.2078 54.0439 61.0281H54.0449L49 58.8015L48.7979 58.7126L48.5967 58.8015L43.5518 61.0281C43.1439 61.2077 42.6961 61.2777 42.2529 61.2302C41.8096 61.1827 41.3861 61.0196 41.0254 60.7576C40.6647 60.4954 40.3784 60.1431 40.1963 59.7361C40.0142 59.329 39.9423 58.8809 39.9873 58.4373L40.543 52.9539L40.5645 52.7341L40.418 52.5701L36.7461 48.4587L36.6387 48.3308C36.399 48.0246 36.2319 47.6669 36.1514 47.2849C36.0594 46.8485 36.0839 46.3957 36.2217 45.9714C36.3595 45.5472 36.6056 45.166 36.9365 44.8669C37.2675 44.5678 37.6714 44.3607 38.1074 44.2664L43.4932 43.1013L43.709 43.0554L43.8193 42.865L46.5947 38.1003C46.8192 37.7153 47.1409 37.3957 47.5273 37.1736C47.9138 36.9515 48.3521 36.8348 48.7979 36.8347ZM27.4492 1.75952C31.3609 1.75957 35.1129 3.31382 37.8789 6.07983C40.6446 8.84576 42.1981 12.5971 42.1982 16.5085C42.1982 20.4202 40.6448 24.1722 37.8789 26.9382C35.1129 29.7042 31.3609 31.2585 27.4492 31.2585C23.5374 31.2585 19.7856 29.7043 17.0195 26.9382C14.2535 24.1722 12.6992 20.4203 12.6992 16.5085C12.6993 12.597 14.2537 8.84577 17.0195 6.07983C19.7856 3.31377 23.5374 1.75952 27.4492 1.75952Z" fill="#3D241B" stroke="url(#paint0_linear_813_1557)"/>
<defs>
<linearGradient id="paint0_linear_813_1557" x1="31.1132" y1="62.2574" x2="28.4325" y2="1.36757" gradientUnits="userSpaceOnUse">
<stop stop-color="#FEE69B"/>
<stop offset="1" stop-color="#FEE69B" stop-opacity="0"/>
</linearGradient>
</defs>
</svg>
