<svg width="62" height="63" viewBox="0 0 62 63" fill="none" xmlns="http://www.w3.org/2000/svg">
<mask id="path-1-inside-1_813_1514" fill="white">
<path d="M61.1943 24.9941C61.2341 27.0301 61.2344 29.3141 61.2344 31.8828V38.0059C61.2344 49.5516 61.2348 55.3268 57.6465 58.9121C54.0582 62.4973 48.2866 62.5 36.7412 62.5H24.4941C12.9484 62.5 7.17317 62.5005 3.58789 58.9121C0.00263361 55.3238 0 49.5516 0 38.0059V31.8828C0 29.3141 0.000241567 27.0301 0.0400391 24.9941H61.1943ZM44.3955 41.0684C43.1775 41.0684 42.0087 41.5518 41.1475 42.4131C40.2863 43.2743 39.8028 44.4423 39.8027 45.6602C39.8027 46.8782 40.2862 48.0469 41.1475 48.9082C42.0087 49.7695 43.1775 50.2529 44.3955 50.2529C45.6133 50.2528 46.7814 49.7693 47.6426 48.9082C48.5039 48.0469 48.9873 46.8782 48.9873 45.6602C48.9872 44.4423 48.5037 43.2743 47.6426 42.4131C46.7814 41.5519 45.6134 41.0685 44.3955 41.0684ZM45.9258 0.5C46.5348 0.5 47.1192 0.742212 47.5498 1.17285C47.9803 1.60339 48.2225 2.18706 48.2227 2.7959V7.63086C52.6284 7.98603 55.5217 8.84966 57.6465 10.9775C59.7743 13.1024 60.638 15.9926 60.9932 20.4014H0.242188C0.597345 15.9956 1.461 13.1024 3.58887 10.9775C5.71371 8.84964 8.60381 7.98589 13.0127 7.63379V2.7959C13.0128 2.18703 13.255 1.6034 13.6855 1.17285C14.1161 0.742309 14.6997 0.500095 15.3086 0.5C15.9176 0.5 16.502 0.742212 16.9326 1.17285C17.3631 1.60339 17.6054 2.18708 17.6055 2.7959V7.42871C19.6415 7.38891 21.9254 7.38867 24.4941 7.38867H36.7412C39.3099 7.38867 41.5939 7.38891 43.6299 7.42871V2.7959C43.63 2.18704 43.8722 1.60339 44.3027 1.17285C44.7333 0.742319 45.3169 0.50012 45.9258 0.5Z"/>
</mask>
<path d="M61.1943 24.9941C61.2341 27.0301 61.2344 29.3141 61.2344 31.8828V38.0059C61.2344 49.5516 61.2348 55.3268 57.6465 58.9121C54.0582 62.4973 48.2866 62.5 36.7412 62.5H24.4941C12.9484 62.5 7.17317 62.5005 3.58789 58.9121C0.00263361 55.3238 0 49.5516 0 38.0059V31.8828C0 29.3141 0.000241567 27.0301 0.0400391 24.9941H61.1943ZM44.3955 41.0684C43.1775 41.0684 42.0087 41.5518 41.1475 42.4131C40.2863 43.2743 39.8028 44.4423 39.8027 45.6602C39.8027 46.8782 40.2862 48.0469 41.1475 48.9082C42.0087 49.7695 43.1775 50.2529 44.3955 50.2529C45.6133 50.2528 46.7814 49.7693 47.6426 48.9082C48.5039 48.0469 48.9873 46.8782 48.9873 45.6602C48.9872 44.4423 48.5037 43.2743 47.6426 42.4131C46.7814 41.5519 45.6134 41.0685 44.3955 41.0684ZM45.9258 0.5C46.5348 0.5 47.1192 0.742212 47.5498 1.17285C47.9803 1.60339 48.2225 2.18706 48.2227 2.7959V7.63086C52.6284 7.98603 55.5217 8.84966 57.6465 10.9775C59.7743 13.1024 60.638 15.9926 60.9932 20.4014H0.242188C0.597345 15.9956 1.461 13.1024 3.58887 10.9775C5.71371 8.84964 8.60381 7.98589 13.0127 7.63379V2.7959C13.0128 2.18703 13.255 1.6034 13.6855 1.17285C14.1161 0.742309 14.6997 0.500095 15.3086 0.5C15.9176 0.5 16.502 0.742212 16.9326 1.17285C17.3631 1.60339 17.6054 2.18708 17.6055 2.7959V7.42871C19.6415 7.38891 21.9254 7.38867 24.4941 7.38867H36.7412C39.3099 7.38867 41.5939 7.38891 43.6299 7.42871V2.7959C43.63 2.18704 43.8722 1.60339 44.3027 1.17285C44.7333 0.742319 45.3169 0.50012 45.9258 0.5Z" fill="#3D241B"/>
<path d="M61.1943 24.9941L62.1941 24.9746L62.175 23.9941H61.1943V24.9941ZM57.6465 58.9121L58.3533 59.6195L58.3533 59.6195L57.6465 58.9121ZM36.7412 62.5V63.5V62.5ZM3.58789 58.9121L2.88048 59.6189L2.88048 59.6189L3.58789 58.9121ZM0.0400391 24.9941V23.9941H-0.940605L-0.95977 24.9746L0.0400391 24.9941ZM44.3955 41.0684L44.3956 40.0684H44.3955V41.0684ZM41.1475 42.4131L40.4404 41.706L40.4403 41.706L41.1475 42.4131ZM39.8027 45.6602L38.8027 45.6601V45.6602H39.8027ZM41.1475 48.9082L40.4404 49.6153L40.4404 49.6153L41.1475 48.9082ZM44.3955 50.2529V51.2529H44.3956L44.3955 50.2529ZM47.6426 48.9082L48.3497 49.6153L48.3497 49.6153L47.6426 48.9082ZM48.9873 45.6602H49.9873V45.6601L48.9873 45.6602ZM47.6426 42.4131L48.3497 41.706L48.3497 41.706L47.6426 42.4131ZM45.9258 0.5V-0.5H45.9256L45.9258 0.5ZM47.5498 1.17285L48.2569 0.465772L48.2569 0.465745L47.5498 1.17285ZM48.2227 2.7959H49.2227V2.79573L48.2227 2.7959ZM48.2227 7.63086H47.2227V8.55349L48.1423 8.62763L48.2227 7.63086ZM57.6465 10.9775L56.9389 11.6841L56.9399 11.6851L57.6465 10.9775ZM60.9932 20.4014V21.4014H62.077L61.9899 20.3211L60.9932 20.4014ZM0.242188 20.4014L-0.754579 20.321L-0.841668 21.4014H0.242188V20.4014ZM3.58887 10.9775L4.29547 11.6852L4.29648 11.6841L3.58887 10.9775ZM13.0127 7.63379L13.0923 8.63062L14.0127 8.55711V7.63379H13.0127ZM13.0127 2.7959L12.0127 2.79573V2.7959H13.0127ZM13.6855 1.17285L12.9784 0.465736L12.9784 0.465745L13.6855 1.17285ZM15.3086 0.5V-0.5H15.3084L15.3086 0.5ZM16.9326 1.17285L17.6398 0.465793L17.6397 0.465745L16.9326 1.17285ZM17.6055 2.7959H18.6055V2.79573L17.6055 2.7959ZM17.6055 7.42871H16.6055V8.44845L17.625 8.42852L17.6055 7.42871ZM36.7412 7.38867V6.38867V7.38867ZM43.6299 7.42871L43.6103 8.42852L44.6299 8.44845V7.42871H43.6299ZM43.6299 2.7959L42.6299 2.79573V2.7959H43.6299ZM44.3027 1.17285L43.5956 0.465745L43.5956 0.465756L44.3027 1.17285ZM61.1943 24.9941L60.1945 25.0137C60.2341 27.038 60.2344 29.3115 60.2344 31.8828H61.2344H62.2344C62.2344 29.3168 62.2342 27.0223 62.1941 24.9746L61.1943 24.9941ZM61.2344 31.8828H60.2344V38.0059H61.2344H62.2344V31.8828H61.2344ZM61.2344 38.0059H60.2344C60.2344 43.807 60.2324 48.0579 59.795 51.3109C59.3615 54.5352 58.5168 56.6289 56.9397 58.2047L57.6465 58.9121L58.3533 59.6195C60.3645 57.61 61.3138 55.0235 61.7771 51.5774C62.2366 48.1601 62.2344 43.7505 62.2344 38.0059H61.2344ZM57.6465 58.9121L56.9397 58.2047C55.3621 59.7809 53.268 60.6255 50.0444 61.0594C46.7919 61.4972 42.542 61.5 36.7412 61.5V62.5V63.5C42.4858 63.5 46.8944 63.5014 50.3111 63.0416C53.7567 62.5778 56.3425 61.6285 58.3533 59.6195L57.6465 58.9121ZM36.7412 62.5V61.5H24.4941V62.5V63.5H36.7412V62.5ZM24.4941 62.5V61.5C18.693 61.5 14.4421 61.498 11.1891 61.0606C7.96477 60.6271 5.87108 59.7824 4.2953 58.2053L3.58789 58.9121L2.88048 59.6189C4.88999 61.6301 7.47653 62.5794 10.9226 63.0428C14.3399 63.5022 18.7495 63.5 24.4941 63.5V62.5ZM3.58789 58.9121L4.2953 58.2053C2.7191 56.6277 1.87443 54.5335 1.44054 51.3096C1.00278 48.057 1 43.8069 1 38.0059H0H-1C-1 43.7506 -1.00146 48.1594 -0.541591 51.5764C-0.077849 55.0221 0.871423 57.6081 2.88048 59.6189L3.58789 58.9121ZM0 38.0059H1V31.8828H0H-1V38.0059H0ZM0 31.8828H1C1 29.3115 1.00028 27.038 1.03985 25.0137L0.0400391 24.9941L-0.95977 24.9746C-0.999796 27.0223 -1 29.3168 -1 31.8828H0ZM0.0400391 24.9941V25.9941H61.1943V24.9941V23.9941H0.0400391V24.9941ZM44.3955 41.0684V40.0684C42.9126 40.0684 41.4894 40.6569 40.4404 41.706L41.1475 42.4131L41.8546 43.1202C42.528 42.4467 43.4423 42.0684 44.3955 42.0684V41.0684ZM41.1475 42.4131L40.4403 41.706C39.3915 42.7548 38.8029 44.1772 38.8027 45.6601L39.8027 45.6602L40.8027 45.6602C40.8028 44.7074 41.1811 43.7937 41.8546 43.1202L41.1475 42.4131ZM39.8027 45.6602H38.8027C38.8027 47.143 39.3913 48.5662 40.4404 49.6153L41.1475 48.9082L41.8546 48.2011C41.1811 47.5276 40.8027 46.6133 40.8027 45.6602H39.8027ZM41.1475 48.9082L40.4404 49.6153C41.4894 50.6644 42.9126 51.2529 44.3955 51.2529V50.2529V49.2529C43.4423 49.2529 42.528 48.8746 41.8546 48.2011L41.1475 48.9082ZM44.3955 50.2529L44.3956 51.2529C45.8784 51.2528 47.3008 50.6641 48.3497 49.6153L47.6426 48.9082L46.9355 48.2011C46.262 48.8745 45.3483 49.2528 44.3954 49.2529L44.3955 50.2529ZM47.6426 48.9082L48.3497 49.6153C49.3988 48.5662 49.9873 47.143 49.9873 45.6602H48.9873H47.9873C47.9873 46.6133 47.609 47.5276 46.9355 48.2011L47.6426 48.9082ZM48.9873 45.6602L49.9873 45.6601C49.9872 44.1772 49.3985 42.7548 48.3497 41.706L47.6426 42.4131L46.9355 43.1202C47.609 43.7937 47.9872 44.7073 47.9873 45.6602L48.9873 45.6602ZM47.6426 42.4131L48.3497 41.706C47.3008 40.6571 45.8784 40.0685 44.3956 40.0684L44.3955 41.0684L44.3954 42.0684C45.3483 42.0685 46.262 42.4467 46.9355 43.1202L47.6426 42.4131ZM45.9258 0.5V1.5C46.2694 1.5 46.5995 1.63673 46.8427 1.87996L47.5498 1.17285L48.2569 0.465745C47.6389 -0.152305 46.8002 -0.5 45.9258 -0.5V0.5ZM47.5498 1.17285L46.8427 1.87993C47.086 2.12332 47.2226 2.45286 47.2227 2.79607L48.2227 2.7959L49.2227 2.79573C49.2225 1.92126 48.8746 1.08346 48.2569 0.465772L47.5498 1.17285ZM48.2227 2.7959H47.2227V7.63086H48.2227H49.2227V2.7959H48.2227ZM48.2227 7.63086L48.1423 8.62763C52.4788 8.97721 55.0714 9.81401 56.9389 11.6841L57.6465 10.9775L58.3541 10.2709C55.9719 7.88531 52.7781 6.99485 48.303 6.63409L48.2227 7.63086ZM57.6465 10.9775L56.9399 11.6851C58.81 13.5527 59.6468 16.1424 59.9964 20.4817L60.9932 20.4014L61.9899 20.3211C61.6292 15.8427 60.7386 12.6521 58.3531 10.2699L57.6465 10.9775ZM60.9932 20.4014V19.4014H0.242188V20.4014V21.4014H60.9932V20.4014ZM0.242188 20.4014L1.23895 20.4817C1.58852 16.1452 2.42535 13.5526 4.29547 11.6852L3.58887 10.9775L2.88226 10.2699C0.496653 12.6521 -0.393834 15.8459 -0.754579 20.321L0.242188 20.4014ZM3.58887 10.9775L4.29648 11.6841C6.16391 9.81402 8.75342 8.97712 13.0923 8.63062L13.0127 7.63379L12.9331 6.63696C8.45419 6.99465 5.26351 7.88525 2.88125 10.2709L3.58887 10.9775ZM13.0127 7.63379H14.0127V2.7959H13.0127H12.0127V7.63379H13.0127ZM13.0127 2.7959L14.0127 2.79607C14.0128 2.4528 14.1493 2.12332 14.3927 1.87996L13.6855 1.17285L12.9784 0.465745C12.3607 1.08347 12.0128 1.92125 12.0127 2.79573L13.0127 2.7959ZM13.6855 1.17285L14.3926 1.87997C14.636 1.63658 14.9655 1.50005 15.3087 1.5L15.3086 0.5L15.3084 -0.5C14.4339 -0.499864 13.5962 -0.151963 12.9784 0.465736L13.6855 1.17285ZM15.3086 0.5V1.5C15.6522 1.5 15.9823 1.63673 16.2255 1.87996L16.9326 1.17285L17.6397 0.465745C17.0217 -0.152305 16.183 -0.5 15.3086 -0.5V0.5ZM16.9326 1.17285L16.2255 1.87991C16.4688 2.12332 16.6054 2.4529 16.6055 2.79607L17.6055 2.7959L18.6055 2.79573C18.6053 1.92126 18.2573 1.08345 17.6398 0.465793L16.9326 1.17285ZM17.6055 2.7959H16.6055V7.42871H17.6055H18.6055V2.7959H17.6055ZM17.6055 7.42871L17.625 8.42852C19.6493 8.38895 21.9228 8.38867 24.4941 8.38867V7.38867V6.38867C21.9281 6.38867 19.6336 6.38888 17.5859 6.4289L17.6055 7.42871ZM24.4941 7.38867V8.38867H36.7412V7.38867V6.38867H24.4941V7.38867ZM36.7412 7.38867V8.38867C39.3125 8.38867 41.5861 8.38895 43.6103 8.42852L43.6299 7.42871L43.6494 6.4289C41.6017 6.38887 39.3073 6.38867 36.7412 6.38867V7.38867ZM43.6299 7.42871H44.6299V2.7959H43.6299H42.6299V7.42871H43.6299ZM43.6299 2.7959L44.6299 2.79607C44.6299 2.45282 44.7665 2.12332 45.0099 1.87995L44.3027 1.17285L43.5956 0.465756C42.9779 1.08347 42.63 1.92125 42.6299 2.79573L43.6299 2.7959ZM44.3027 1.17285L45.0098 1.87996C45.2532 1.63662 45.5827 1.50007 45.926 1.5L45.9258 0.5L45.9256 -0.5C45.0512 -0.499828 44.2134 -0.151981 43.5956 0.465745L44.3027 1.17285Z" fill="url(#paint0_linear_813_1514)" mask="url(#path-1-inside-1_813_1514)"/>
<defs>
<linearGradient id="paint0_linear_813_1514" x1="30.729" y1="62.5" x2="27.9252" y2="0.616906" gradientUnits="userSpaceOnUse">
<stop stop-color="#FEE69B"/>
<stop offset="1" stop-color="#FEE69B" stop-opacity="0"/>
</linearGradient>
</defs>
</svg>
