<svg width="62" height="63" viewBox="0 0 62 63" fill="none" xmlns="http://www.w3.org/2000/svg">
<mask id="path-1-inside-1_813_1597" fill="white">
<path d="M57.3496 34.9949C57.3496 46.6849 57.35 52.5318 53.7168 56.1619C50.0836 59.7919 44.2398 59.7947 32.5498 59.7947H29.4492C17.7598 59.7947 11.9133 59.7947 8.2832 56.1619C4.65312 52.5287 4.64941 46.6849 4.64941 34.9949V21.0388L5.98535 21.0447H56.0137L57.3496 21.0388V34.9949ZM26.3496 27.2449C24.905 27.2449 24.1827 27.2446 23.6123 27.4802C22.8532 27.7948 22.2502 28.398 21.9355 29.157C21.7 29.7273 21.6992 30.45 21.6992 31.8943C21.6992 33.3386 21.6999 34.0612 21.9385 34.6316C22.2524 35.3902 22.8542 35.994 23.6123 36.3093C24.1827 36.5449 24.9051 36.5447 26.3496 36.5447H35.6494C37.0937 36.5447 37.8164 36.545 38.3867 36.3064C39.1454 35.9925 39.7492 35.3897 40.0645 34.6316C40.2999 34.0613 40.2998 33.3385 40.2998 31.8943C40.2998 30.45 40.2992 29.7273 40.0605 29.157C39.7466 28.3986 39.1446 27.7955 38.3867 27.4802C37.8164 27.2447 37.0938 27.2449 35.6494 27.2449H26.3496ZM55.7998 3.99487C58.7231 3.99487 60.1835 3.99478 61.0918 4.90308C61.9999 5.81134 62 7.27127 62 10.1941C62 13.1173 62 14.5778 61.0918 15.4861C60.1835 16.3944 58.7231 16.3943 55.7998 16.3943H6.2002C3.27689 16.3943 1.8165 16.3944 0.908203 15.4861C3.79186e-05 14.5778 0 13.1172 0 10.1941C2.55008e-09 7.27127 0.000109198 5.81134 0.908203 4.90308C1.8165 3.99478 3.27689 3.99487 6.2002 3.99487H55.7998Z"/>
</mask>
<path d="M57.3496 34.9949C57.3496 46.6849 57.35 52.5318 53.7168 56.1619C50.0836 59.7919 44.2398 59.7947 32.5498 59.7947H29.4492C17.7598 59.7947 11.9133 59.7947 8.2832 56.1619C4.65312 52.5287 4.64941 46.6849 4.64941 34.9949V21.0388L5.98535 21.0447H56.0137L57.3496 21.0388V34.9949ZM26.3496 27.2449C24.905 27.2449 24.1827 27.2446 23.6123 27.4802C22.8532 27.7948 22.2502 28.398 21.9355 29.157C21.7 29.7273 21.6992 30.45 21.6992 31.8943C21.6992 33.3386 21.6999 34.0612 21.9385 34.6316C22.2524 35.3902 22.8542 35.994 23.6123 36.3093C24.1827 36.5449 24.9051 36.5447 26.3496 36.5447H35.6494C37.0937 36.5447 37.8164 36.545 38.3867 36.3064C39.1454 35.9925 39.7492 35.3897 40.0645 34.6316C40.2999 34.0613 40.2998 33.3385 40.2998 31.8943C40.2998 30.45 40.2992 29.7273 40.0605 29.157C39.7466 28.3986 39.1446 27.7955 38.3867 27.4802C37.8164 27.2447 37.0938 27.2449 35.6494 27.2449H26.3496ZM55.7998 3.99487C58.7231 3.99487 60.1835 3.99478 61.0918 4.90308C61.9999 5.81134 62 7.27127 62 10.1941C62 13.1173 62 14.5778 61.0918 15.4861C60.1835 16.3944 58.7231 16.3943 55.7998 16.3943H6.2002C3.27689 16.3943 1.8165 16.3944 0.908203 15.4861C3.79186e-05 14.5778 0 13.1172 0 10.1941C2.55008e-09 7.27127 0.000109198 5.81134 0.908203 4.90308C1.8165 3.99478 3.27689 3.99487 6.2002 3.99487H55.7998Z" fill="#3D241B"/>
<path d="M57.3496 34.9949H58.3496H57.3496ZM53.7168 56.1619L54.4236 56.8693H54.4236L53.7168 56.1619ZM32.5498 59.7947V60.7947V59.7947ZM29.4492 59.7947V60.7947V59.7947ZM8.2832 56.1619L7.57579 56.8687L7.57583 56.8687L8.2832 56.1619ZM4.64941 34.9949H3.64941H4.64941ZM4.64941 21.0388L4.6538 20.0388L3.64941 20.0344V21.0388H4.64941ZM5.98535 21.0447L5.98097 22.0447H5.98535V21.0447ZM56.0137 21.0447V22.0447L56.0181 22.0447L56.0137 21.0447ZM57.3496 21.0388H58.3496V20.0344L57.3452 20.0388L57.3496 21.0388ZM26.3496 27.2449V26.2449V27.2449ZM23.6123 27.4802L23.2305 26.556L23.2295 26.5564L23.6123 27.4802ZM21.9355 29.157L21.0118 28.774L21.0113 28.7752L21.9355 29.157ZM21.6992 31.8943H20.6992H21.6992ZM21.9385 34.6316L22.8625 34.2493L22.861 34.2457L21.9385 34.6316ZM23.6123 36.3093L23.2283 37.2327L23.2306 37.2336L23.6123 36.3093ZM26.3496 36.5447V37.5447V36.5447ZM38.3867 36.3064L38.0044 35.3824L38.0008 35.3838L38.3867 36.3064ZM40.0645 34.6316L40.9878 35.0156L40.9888 35.0131L40.0645 34.6316ZM40.2998 31.8943H41.2998H40.2998ZM40.0605 29.157L39.1366 29.5395L39.1381 29.543L40.0605 29.157ZM38.3867 27.4802L38.7707 26.5569L38.7684 26.5559L38.3867 27.4802ZM61.0918 4.90308L61.799 4.19603L61.7989 4.19597L61.0918 4.90308ZM62 10.1941H63H62ZM61.0918 15.4861L61.7989 16.1932L61.799 16.1931L61.0918 15.4861ZM0.908203 15.4861L0.20104 16.1931L0.201096 16.1932L0.908203 15.4861ZM0 10.1941H-1H0ZM0.908203 4.90308L0.201096 4.19597L0.20103 4.19604L0.908203 4.90308ZM57.3496 34.9949H56.3496C56.3496 40.8682 56.3476 45.173 55.9046 48.4676C55.4654 51.7334 54.6095 53.8563 53.01 55.4545L53.7168 56.1619L54.4236 56.8693C56.4572 54.8374 57.4178 52.2217 57.8867 48.7341C58.3518 45.2752 58.3496 40.8116 58.3496 34.9949H57.3496ZM53.7168 56.1619L53.01 55.4545C51.41 57.0531 49.2866 57.909 46.0212 58.3485C42.727 58.7919 38.4229 58.7947 32.5498 58.7947V59.7947V60.7947C38.3667 60.7947 42.8295 60.7961 46.288 60.3306C49.7753 59.8612 52.3904 58.9007 54.4236 56.8693L53.7168 56.1619ZM32.5498 59.7947V58.7947H29.4492V59.7947V60.7947H32.5498V59.7947ZM29.4492 59.7947V58.7947C23.5762 58.7947 19.2717 58.7925 15.9772 58.3495C12.7116 57.9103 10.5888 57.0544 8.99057 55.455L8.2832 56.1619L7.57583 56.8687C9.6077 58.9021 12.2232 59.8626 15.7107 60.3316C19.1694 60.7968 23.6328 60.7947 29.4492 60.7947V59.7947ZM8.2832 56.1619L8.99061 55.4551C7.39195 53.855 6.53583 51.7316 6.09608 48.4662C5.65246 45.1721 5.64941 40.868 5.64941 34.9949H4.64941H3.64941C3.64941 40.8118 3.64822 45.2746 4.11397 48.7331C4.5836 52.2204 5.54438 54.8355 7.57579 56.8687L8.2832 56.1619ZM4.64941 34.9949H5.64941V21.0388H4.64941H3.64941V34.9949H4.64941ZM4.64941 21.0388L4.64503 22.0388L5.98097 22.0447L5.98535 21.0447L5.98974 20.0447L4.6538 20.0388L4.64941 21.0388ZM5.98535 21.0447V22.0447H56.0137V21.0447V20.0447H5.98535V21.0447ZM56.0137 21.0447L56.0181 22.0447L57.354 22.0388L57.3496 21.0388L57.3452 20.0388L56.0093 20.0447L56.0137 21.0447ZM57.3496 21.0388H56.3496V34.9949H57.3496H58.3496V21.0388H57.3496ZM26.3496 27.2449V26.2449C25.6411 26.2449 25.0596 26.2443 24.5853 26.2765C24.1021 26.3093 23.6576 26.3796 23.2305 26.556L23.6123 27.4802L23.9941 28.4045C24.1374 28.3453 24.3393 28.2978 24.7209 28.2719C25.1116 28.2453 25.6136 28.2449 26.3496 28.2449V27.2449ZM23.6123 27.4802L23.2295 26.5564C22.2254 26.9725 21.4279 27.7703 21.0118 28.774L21.9355 29.157L22.8593 29.54C23.0725 29.0256 23.4811 28.6171 23.9951 28.404L23.6123 27.4802ZM21.9355 29.157L21.0113 28.7752C20.835 29.2019 20.7645 29.6461 20.7314 30.1295C20.6989 30.604 20.6992 31.1855 20.6992 31.8943H21.6992H22.6992C22.6992 31.1588 22.6999 30.6567 22.7267 30.2663C22.7528 29.8847 22.8005 29.6824 22.8598 29.5387L21.9355 29.157ZM21.6992 31.8943H20.6992C20.6992 32.6029 20.6988 33.1848 20.7318 33.6599C20.7654 34.1441 20.8369 34.5896 21.0159 35.0175L21.9385 34.6316L22.861 34.2457C22.8014 34.1033 22.7534 33.9023 22.727 33.5215C22.6999 33.1315 22.6992 32.63 22.6992 31.8943H21.6992ZM21.9385 34.6316L21.0144 35.0139C21.4294 36.0168 22.2252 36.8154 23.2283 37.2326L23.6123 36.3093L23.9963 35.386C23.4833 35.1726 23.0753 34.7637 22.8625 34.2493L21.9385 34.6316ZM23.6123 36.3093L23.2306 37.2336C23.6576 37.41 24.1021 37.4802 24.5853 37.513C25.0596 37.5453 25.6411 37.5447 26.3496 37.5447V36.5447V35.5447C25.6136 35.5447 25.1116 35.5442 24.721 35.5176C24.3393 35.4917 24.1374 35.4442 23.994 35.3851L23.6123 36.3093ZM26.3496 36.5447V37.5447H35.6494V36.5447V35.5447H26.3496V36.5447ZM35.6494 36.5447V37.5447C36.3577 37.5447 36.9396 37.5453 37.4144 37.5126C37.8984 37.4793 38.3443 37.4081 38.7726 37.2289L38.3867 36.3064L38.0008 35.3838C37.8588 35.4433 37.6582 35.4911 37.2772 35.5174C36.887 35.5442 36.3855 35.5447 35.6494 35.5447V36.5447ZM38.3867 36.3064L38.769 37.2304C39.7725 36.8152 40.5708 36.0181 40.9878 35.0156L40.0645 34.6316L39.1411 34.2476C38.9275 34.7612 38.5182 35.1698 38.0044 35.3824L38.3867 36.3064ZM40.0645 34.6316L40.9888 35.0131C41.165 34.5862 41.2352 34.1417 41.2681 33.6585C41.3004 33.1842 41.2998 32.6027 41.2998 31.8943H40.2998H39.2998C39.2998 32.63 39.2993 33.1321 39.2727 33.5228C39.2467 33.9046 39.1993 34.1067 39.1401 34.2501L40.0645 34.6316ZM40.2998 31.8943H41.2998C41.2998 31.1857 41.3002 30.6038 41.2673 30.1287C41.2337 29.6445 41.1621 29.1989 40.983 28.7709L40.0605 29.157L39.1381 29.543C39.1976 29.6854 39.2457 29.8863 39.2721 30.267C39.2991 30.657 39.2998 31.1585 39.2998 31.8943H40.2998ZM40.0605 29.157L40.9845 28.7745C40.5693 27.7715 39.7732 26.9739 38.7707 26.5569L38.3867 27.4802L38.0027 28.4035C38.516 28.6171 38.9239 29.0256 39.1366 29.5395L40.0605 29.157ZM38.3867 27.4802L38.7684 26.5559C38.3413 26.3796 37.8969 26.3094 37.4137 26.2765C36.9394 26.2443 36.3579 26.2449 35.6494 26.2449V27.2449V28.2449C36.3853 28.2449 36.8873 28.2454 37.278 28.2719C37.6597 28.2979 37.8617 28.3453 38.0051 28.4045L38.3867 27.4802ZM35.6494 27.2449V26.2449H26.3496V27.2449V28.2449H35.6494V27.2449ZM55.7998 3.99487V4.99487C57.2898 4.99487 58.3062 4.99697 59.0681 5.09944C59.8011 5.19801 60.1472 5.37269 60.3847 5.61018L61.0918 4.90308L61.7989 4.19597C61.1281 3.52516 60.2898 3.24574 59.3347 3.11728C58.4085 2.99272 57.2331 2.99487 55.7998 2.99487V3.99487ZM61.0918 4.90308L60.3846 5.61012C60.6221 5.84765 60.7968 6.19372 60.8954 6.92647C60.9978 7.68816 61 8.70441 61 10.1941H62H63C63 8.76095 63.0021 7.58582 62.8775 6.65978C62.749 5.70479 62.4696 4.86676 61.799 4.19603L61.0918 4.90308ZM62 10.1941H61C61 11.684 60.9979 12.7004 60.8954 13.4624C60.7968 14.1954 60.6221 14.5415 60.3846 14.779L61.0918 15.4861L61.799 16.1931C62.4697 15.5223 62.7491 14.6841 62.8775 13.729C63.0021 12.8027 63 11.6274 63 10.1941H62ZM61.0918 15.4861L60.3847 14.779C60.1472 15.0165 59.8011 15.1911 59.0681 15.2897C58.3062 15.3922 57.2898 15.3943 55.7998 15.3943V16.3943V17.3943C57.2331 17.3943 58.4085 17.3964 59.3347 17.2719C60.2898 17.1434 61.1281 16.864 61.7989 16.1932L61.0918 15.4861ZM55.7998 16.3943V15.3943H6.2002V16.3943V17.3943H55.7998V16.3943ZM6.2002 16.3943V15.3943C4.71024 15.3943 3.69376 15.3922 2.93186 15.2897C2.19889 15.1911 1.8528 15.0165 1.61531 14.779L0.908203 15.4861L0.201096 16.1932C0.871908 16.864 1.71016 17.1434 2.66529 17.2719C3.59149 17.3964 4.76685 17.3943 6.2002 17.3943V16.3943ZM0.908203 15.4861L1.61537 14.779C1.3779 14.5415 1.20321 14.1954 1.10461 13.4624C1.00213 12.7004 1 11.6839 1 10.1941H0H-1C-1 11.6274 -1.00212 12.8027 -0.877536 13.729C-0.749069 14.6841 -0.469661 15.5223 0.20104 16.1931L0.908203 15.4861ZM0 10.1941H1C1 8.70441 1.00215 7.68816 1.10464 6.92647C1.20322 6.19372 1.37789 5.84765 1.61538 5.61012L0.908203 4.90308L0.20103 4.19604C-0.469575 4.86677 -0.749014 5.70479 -0.877503 6.65978C-1.0021 7.58583 -1 8.76095 -1 10.1941H0ZM0.908203 4.90308L1.61531 5.61018C1.8528 5.37269 2.19889 5.19801 2.93186 5.09944C3.69376 4.99697 4.71024 4.99487 6.2002 4.99487V3.99487V2.99487C4.76685 2.99487 3.59149 2.99272 2.66529 3.11728C1.71016 3.24574 0.871908 3.52516 0.201096 4.19597L0.908203 4.90308ZM6.2002 3.99487V4.99487H55.7998V3.99487V2.99487H6.2002V3.99487Z" fill="url(#paint0_linear_813_1597)" mask="url(#path-1-inside-1_813_1597)"/>
<defs>
<linearGradient id="paint0_linear_813_1597" x1="31.1132" y1="59.7947" x2="28.8692" y2="4.07613" gradientUnits="userSpaceOnUse">
<stop stop-color="#FEE69B"/>
<stop offset="1" stop-color="#FEE69B" stop-opacity="0"/>
</linearGradient>
</defs>
</svg>
