<svg width="62" height="63" viewBox="0 0 62 63" fill="none" xmlns="http://www.w3.org/2000/svg">
<path d="M15.3447 1C16.5495 1 17.1246 0.999781 17.6729 1.0498V1.05078C19.9069 1.25982 22.0333 2.09572 23.8086 3.45801L24.1582 3.7373C24.5828 4.09122 24.9867 4.49358 25.8418 5.34863L27.5469 7.05371C30.0553 9.55909 31.376 10.8885 32.9639 11.7705V11.7715C33.8287 12.2535 34.7463 12.6341 35.6982 12.9062H35.6992C37.4497 13.4041 39.321 13.4004 42.8672 13.4004H44.0264C48.1189 13.4004 51.1422 13.4012 53.4756 13.6943C55.7958 13.9858 57.3644 14.5589 58.583 15.6543V15.6553C58.8134 15.8634 59.0331 16.0831 59.2402 16.3145L59.2412 16.3164C60.3387 17.5351 60.9131 19.1032 61.2051 21.4238C61.4986 23.7573 61.5 26.7813 61.5 30.874V37.7002C61.5 43.5592 61.4978 47.9031 61.0488 51.2383C60.6017 54.5589 59.7195 56.8054 58.0127 58.5137C56.3061 60.2215 54.0603 61.1041 50.7393 61.5508C47.4037 61.9994 43.0593 62 37.2002 62H24.7998C18.9408 62 14.5969 61.9978 11.2617 61.5488C7.94106 61.1017 5.69459 60.2195 3.98633 58.5127C2.27845 56.8061 1.39588 54.5603 0.949219 51.2393C0.500605 47.9037 0.5 43.5593 0.5 37.7002V15.8447C0.5 13.0879 0.502071 11.7761 0.708008 10.6934V10.6924C1.15276 8.34171 2.29566 6.17647 3.9873 4.48535C5.67913 2.79406 7.84172 1.65197 10.1924 1.20801H10.1934C11.2761 1.00207 12.5849 1 15.3447 1ZM34.0996 22.4746C33.3505 22.4747 32.6322 22.773 32.1025 23.3027C31.5729 23.8325 31.2754 24.5507 31.2754 25.2998C31.2754 26.049 31.5727 26.7681 32.1025 27.2979C32.6322 27.8274 33.3506 28.1249 34.0996 28.125H49.5996C50.3488 28.125 51.0679 27.8276 51.5977 27.2979C52.1274 26.7681 52.4248 26.049 52.4248 25.2998C52.4248 24.5507 52.1273 23.8325 51.5977 23.3027C51.0679 22.7729 50.3488 22.4746 49.5996 22.4746H34.0996ZM44.2773 4.09961C45.424 4.09961 45.9515 4.1005 46.3887 4.15723C49.0761 4.52815 51.2717 6.50856 52.0332 9.1582C51.8003 9.11787 51.5665 9.08271 51.332 9.05273H51.333C49.3092 8.78711 46.7665 8.78809 43.6729 8.78809H42.6377C39.6865 8.78809 38.6635 8.7681 37.7422 8.49609C37.1934 8.33369 36.6654 8.10679 36.1699 7.82031L36.1689 7.81934L35.8555 7.62402C35.3317 7.27128 34.7771 6.76349 33.8379 5.8125L32.5039 4.44043L32.1758 4.09961H44.2773Z" fill="#3D241B" stroke="url(#paint0_linear_813_1501)"/>
<defs>
<linearGradient id="paint0_linear_813_1501" x1="31.1132" y1="62.5" x2="28.3438" y2="0.613794" gradientUnits="userSpaceOnUse">
<stop stop-color="#FEE69B"/>
<stop offset="1" stop-color="#FEE69B" stop-opacity="0"/>
</linearGradient>
</defs>
</svg>
