<svg width="62" height="64" viewBox="0 0 62 64" fill="none" xmlns="http://www.w3.org/2000/svg">
<path d="M31 1.75952C38.3208 1.75952 43.7624 1.76024 47.9424 2.32202C52.1077 2.88187 54.9454 3.99072 57.1045 6.15112C59.2668 8.31346 60.3763 11.1527 60.9365 15.3181C61.4987 19.4981 61.5 24.9387 61.5 32.2595C61.5 39.5801 61.4986 45.021 60.9365 49.2009C60.3763 53.3664 59.2675 56.2049 57.1055 58.364L57.1045 58.365C54.9437 60.527 52.1054 61.6358 47.9404 62.196C43.7609 62.7582 38.3207 62.7595 31 62.7595C23.6792 62.7595 18.2391 62.7582 14.0596 62.196C9.89473 61.6358 7.05552 60.5265 4.8916 58.364C2.73107 56.2033 1.62232 53.3649 1.0625 49.2C0.500768 45.0204 0.5 39.5801 0.5 32.2595C0.5 24.9387 0.500718 19.4987 1.0625 15.3191C1.62236 11.1541 2.73161 8.31505 4.89258 6.15112L4.8916 6.15015C7.05387 3.98968 9.89347 2.88183 14.0586 2.32202C18.2386 1.76024 23.6792 1.75952 31 1.75952ZM25.832 30.7156C25.9005 30.7664 25.9659 30.8213 26.0273 30.8806L26.0332 30.8855L26.0381 30.8904C26.586 31.3885 27.2679 32.1926 28.4277 33.5837V33.5847L29.332 34.6687C30.3441 35.8838 31.2866 37.0154 32.1738 37.8191L32.1748 37.8201C33.1504 38.7016 34.4408 39.5427 36.168 39.5427C37.8954 39.5426 39.1823 38.7008 40.1602 37.8201L40.1611 37.8191C40.8268 37.2161 41.5234 36.4292 42.2559 35.5603L43 34.6687L48.6699 27.8679L48.6777 27.8582C49.1359 27.2806 49.3499 26.5466 49.2744 25.8132C49.1988 25.0796 48.839 24.4045 48.2725 23.9324C47.7059 23.4603 46.9774 23.2279 46.2422 23.2859C45.507 23.3439 44.8235 23.687 44.3379 24.2419L44.3301 24.2517L38.7598 30.9353H38.7588C37.6023 32.3262 36.919 33.1334 36.3721 33.6277L36.3652 33.6335L36.3594 33.6394C36.299 33.698 36.2342 33.7522 36.167 33.8025C36.099 33.7519 36.0338 33.6974 35.9727 33.6384L35.9668 33.6335L35.9619 33.6287L35.749 33.4265C35.2358 32.9198 34.5869 32.1523 33.5723 30.9353V30.9343L32.667 29.8494C31.6574 28.6336 30.7131 27.5034 29.8262 26.7L29.8252 26.699C28.8496 25.8174 27.5592 24.9763 25.832 24.9763C24.1046 24.9764 22.8177 25.8183 21.8398 26.699L21.8389 26.7C21.1732 27.3029 20.4766 28.0899 19.7441 28.9587L19 29.8503L13.3271 36.6511C13.0898 36.9362 12.911 37.2657 12.8008 37.6199C12.6906 37.9742 12.6508 38.347 12.6846 38.7166C12.7527 39.4627 13.1147 40.1511 13.6904 40.6306C14.2663 41.1101 15.0096 41.3414 15.7559 41.2732C16.502 41.2049 17.1905 40.8431 17.6699 40.2673L23.2402 33.5837H23.2412C24.3977 32.1929 25.081 31.3857 25.6279 30.8914L25.6348 30.8855L25.6406 30.8796C25.7009 30.8211 25.7649 30.7659 25.832 30.7156Z" fill="#3D241B" stroke="url(#paint0_linear_813_1544)"/>
<defs>
<linearGradient id="paint0_linear_813_1544" x1="31.1132" y1="63.2595" x2="28.3438" y2="1.37332" gradientUnits="userSpaceOnUse">
<stop stop-color="#FEE69B"/>
<stop offset="1" stop-color="#FEE69B" stop-opacity="0"/>
</linearGradient>
</defs>
</svg>
