<svg width="62" height="63" viewBox="0 0 62 63" fill="none" xmlns="http://www.w3.org/2000/svg">
<path d="M54.249 7.22998L54.6084 7.23975C56.4 7.33031 58.0996 8.08151 59.374 9.35596C60.6485 10.6304 61.3997 12.33 61.4902 14.1216L61.5 14.481V47.6938L61.4902 48.0532C61.3995 49.8446 60.6483 51.5445 59.374 52.8188C58.0148 54.178 56.1712 54.9418 54.249 54.9438H7.75098C5.82878 54.9418 3.98524 54.178 2.62598 52.8188C1.26671 51.4596 0.502087 49.6161 0.5 47.6938V14.481C0.502056 12.5586 1.26668 10.7153 2.62598 9.35596C3.90042 8.08151 5.60003 7.33031 7.3916 7.23975L7.75098 7.22998H54.249ZM10.7285 15.0864C10.3714 15.1286 10.0261 15.2417 9.71289 15.4185C9.39972 15.5952 9.12502 15.8328 8.9043 16.1167C8.6836 16.4006 8.52082 16.7257 8.42676 17.0728C8.3328 17.4197 8.30931 17.7818 8.35645 18.1382C8.40362 18.4947 8.52105 18.8382 8.70215 19.1489C8.88195 19.4574 9.12104 19.7269 9.40527 19.9429V19.9438L29.334 35.4438C29.8103 35.8142 30.3966 36.0151 31 36.0151C31.6034 36.0151 32.1897 35.8142 32.666 35.4438L52.5947 19.9438L52.5996 19.9399C53.1564 19.4943 53.5159 18.8473 53.5996 18.1392C53.6832 17.4309 53.4846 16.7178 53.0469 16.1548C52.6091 15.5917 51.9669 15.223 51.2598 15.1294C50.5528 15.0359 49.8377 15.225 49.2686 15.6548L49.2627 15.6587L31 29.8618L12.7373 15.6587H12.7363C12.457 15.4365 12.1371 15.2706 11.7939 15.1724C11.4482 15.0734 11.0857 15.0443 10.7285 15.0864Z" fill="#3D241B" stroke="url(#paint0_linear_813_1531)"/>
<defs>
<linearGradient id="paint0_linear_813_1531" x1="31.1132" y1="55.4443" x2="29.4023" y2="6.78218" gradientUnits="userSpaceOnUse">
<stop stop-color="#FEE69B"/>
<stop offset="1" stop-color="#FEE69B" stop-opacity="0"/>
</linearGradient>
</defs>
</svg>
