<svg width="102" height="103" viewBox="0 0 102 103" fill="none" xmlns="http://www.w3.org/2000/svg">
<mask id="path-1-inside-1_813_493" fill="white">
<path d="M64.1104 0.0999756C67.9576 0.0999756 71.0749 0.0995433 73.5986 0.317749C76.1982 0.535964 78.4946 1.00101 80.6104 2.12048C83.9799 3.90813 86.696 6.71898 88.3672 10.1478C89.4203 12.3016 89.8665 14.6264 90.0752 17.2972C90.2792 19.9016 90.2793 23.1179 90.2793 27.1263V75.0746C90.2793 79.0785 90.2791 82.2952 90.0703 84.8949C89.8616 87.5703 89.4201 89.8946 88.3623 92.0482C86.6924 95.4764 83.9782 98.2871 80.6104 100.076C78.4945 101.195 76.2031 101.66 73.5986 101.883C71.2557 102.046 68.9071 102.117 66.5586 102.096V67.7025C66.5586 64.2425 65.1839 60.9235 62.7373 58.4769C60.2907 56.0306 56.9725 54.6566 53.5127 54.6566H48.7686C45.3087 54.6566 41.9905 56.0306 39.5439 58.4769C37.0973 60.9235 35.7227 64.2425 35.7227 67.7025V102.096C32.9712 102.087 30.6513 102.049 28.6826 101.878C26.083 101.66 23.7867 101.195 21.6709 100.076C18.3013 98.2879 15.5852 95.4771 13.9141 92.0482C12.8611 89.8946 12.4195 87.5704 12.2061 84.8998C12.0021 82.2953 12.002 79.0784 12.002 75.0697V27.1263C12.002 23.1179 12.0022 19.9016 12.2109 17.2972C12.4197 14.6264 12.861 12.3016 13.9189 10.1478C15.5876 6.72041 18.3 3.90972 21.666 2.12048C23.7865 1.00098 26.0784 0.536804 28.6875 0.313843C31.2064 0.100397 34.323 0.0999756 38.1748 0.0999756H64.1104ZM53.5127 61.7719C56.786 61.7719 59.4424 64.4292 59.4424 67.7025V102.096H42.8389V67.7025C42.8389 64.4291 45.4952 61.7719 48.7686 61.7719H53.5127ZM32.1641 38.0521C31.2206 38.0522 30.3156 38.427 29.6484 39.0941C28.9813 39.7613 28.6066 40.6663 28.6064 41.6097C28.6064 42.5534 28.9812 43.4591 29.6484 44.1263C30.3156 44.7935 31.2206 45.1682 32.1641 45.1683H41.6523C42.5958 45.1683 43.5007 44.7934 44.168 44.1263C44.8352 43.4591 45.2109 42.5534 45.2109 41.6097C45.2108 40.6663 44.8351 39.7613 44.168 39.0941C43.5007 38.4271 42.5958 38.0521 41.6523 38.0521H32.1641ZM60.6289 38.0521C59.6853 38.0521 58.7796 38.4269 58.1123 39.0941C57.4452 39.7613 57.0704 40.6663 57.0703 41.6097C57.0703 42.5533 57.4451 43.4591 58.1123 44.1263C58.7796 44.7936 59.6853 45.1683 60.6289 45.1683H70.1172C71.0606 45.1682 71.9657 44.7935 72.6328 44.1263C73.3001 43.4591 73.6748 42.5534 73.6748 41.6097C73.6747 40.6663 73.3 39.7613 72.6328 39.0941C71.9657 38.427 71.0607 38.0522 70.1172 38.0521H60.6289ZM32.1641 19.0765C31.2206 19.0767 30.3156 19.4514 29.6484 20.1185C28.9813 20.7858 28.6064 21.6906 28.6064 22.6342C28.6065 23.5777 28.9813 24.4826 29.6484 25.1498C30.3156 25.8169 31.2206 26.1917 32.1641 26.1918H41.6523C42.5959 26.1918 43.5007 25.817 44.168 25.1498C44.8352 24.4825 45.2109 23.5778 45.2109 22.6342C45.2109 21.6905 44.8352 20.7858 44.168 20.1185C43.5007 19.4513 42.596 19.0765 41.6523 19.0765H32.1641ZM60.6289 19.0765C59.6853 19.0765 58.7796 19.4513 58.1123 20.1185C57.4453 20.7857 57.0703 21.6907 57.0703 22.6342C57.0703 23.5776 57.4453 24.4826 58.1123 25.1498C58.7796 25.817 59.6853 26.1918 60.6289 26.1918H70.1172C71.0607 26.1916 71.9657 25.8169 72.6328 25.1498C73.2999 24.4826 73.6748 23.5777 73.6748 22.6342C73.6748 21.6906 73.2999 20.7858 72.6328 20.1185C71.9657 19.4514 71.0607 19.0767 70.1172 19.0765H60.6289Z"/>
</mask>
<path d="M64.1104 0.0999756C67.9576 0.0999756 71.0749 0.0995433 73.5986 0.317749C76.1982 0.535964 78.4946 1.00101 80.6104 2.12048C83.9799 3.90813 86.696 6.71898 88.3672 10.1478C89.4203 12.3016 89.8665 14.6264 90.0752 17.2972C90.2792 19.9016 90.2793 23.1179 90.2793 27.1263V75.0746C90.2793 79.0785 90.2791 82.2952 90.0703 84.8949C89.8616 87.5703 89.4201 89.8946 88.3623 92.0482C86.6924 95.4764 83.9782 98.2871 80.6104 100.076C78.4945 101.195 76.2031 101.66 73.5986 101.883C71.2557 102.046 68.9071 102.117 66.5586 102.096V67.7025C66.5586 64.2425 65.1839 60.9235 62.7373 58.4769C60.2907 56.0306 56.9725 54.6566 53.5127 54.6566H48.7686C45.3087 54.6566 41.9905 56.0306 39.5439 58.4769C37.0973 60.9235 35.7227 64.2425 35.7227 67.7025V102.096C32.9712 102.087 30.6513 102.049 28.6826 101.878C26.083 101.66 23.7867 101.195 21.6709 100.076C18.3013 98.2879 15.5852 95.4771 13.9141 92.0482C12.8611 89.8946 12.4195 87.5704 12.2061 84.8998C12.0021 82.2953 12.002 79.0784 12.002 75.0697V27.1263C12.002 23.1179 12.0022 19.9016 12.2109 17.2972C12.4197 14.6264 12.861 12.3016 13.9189 10.1478C15.5876 6.72041 18.3 3.90972 21.666 2.12048C23.7865 1.00098 26.0784 0.536804 28.6875 0.313843C31.2064 0.100397 34.323 0.0999756 38.1748 0.0999756H64.1104ZM53.5127 61.7719C56.786 61.7719 59.4424 64.4292 59.4424 67.7025V102.096H42.8389V67.7025C42.8389 64.4291 45.4952 61.7719 48.7686 61.7719H53.5127ZM32.1641 38.0521C31.2206 38.0522 30.3156 38.427 29.6484 39.0941C28.9813 39.7613 28.6066 40.6663 28.6064 41.6097C28.6064 42.5534 28.9812 43.4591 29.6484 44.1263C30.3156 44.7935 31.2206 45.1682 32.1641 45.1683H41.6523C42.5958 45.1683 43.5007 44.7934 44.168 44.1263C44.8352 43.4591 45.2109 42.5534 45.2109 41.6097C45.2108 40.6663 44.8351 39.7613 44.168 39.0941C43.5007 38.4271 42.5958 38.0521 41.6523 38.0521H32.1641ZM60.6289 38.0521C59.6853 38.0521 58.7796 38.4269 58.1123 39.0941C57.4452 39.7613 57.0704 40.6663 57.0703 41.6097C57.0703 42.5533 57.4451 43.4591 58.1123 44.1263C58.7796 44.7936 59.6853 45.1683 60.6289 45.1683H70.1172C71.0606 45.1682 71.9657 44.7935 72.6328 44.1263C73.3001 43.4591 73.6748 42.5534 73.6748 41.6097C73.6747 40.6663 73.3 39.7613 72.6328 39.0941C71.9657 38.427 71.0607 38.0522 70.1172 38.0521H60.6289ZM32.1641 19.0765C31.2206 19.0767 30.3156 19.4514 29.6484 20.1185C28.9813 20.7858 28.6064 21.6906 28.6064 22.6342C28.6065 23.5777 28.9813 24.4826 29.6484 25.1498C30.3156 25.8169 31.2206 26.1917 32.1641 26.1918H41.6523C42.5959 26.1918 43.5007 25.817 44.168 25.1498C44.8352 24.4825 45.2109 23.5778 45.2109 22.6342C45.2109 21.6905 44.8352 20.7858 44.168 20.1185C43.5007 19.4513 42.596 19.0765 41.6523 19.0765H32.1641ZM60.6289 19.0765C59.6853 19.0765 58.7796 19.4513 58.1123 20.1185C57.4453 20.7857 57.0703 21.6907 57.0703 22.6342C57.0703 23.5776 57.4453 24.4826 58.1123 25.1498C58.7796 25.817 59.6853 26.1918 60.6289 26.1918H70.1172C71.0607 26.1916 71.9657 25.8169 72.6328 25.1498C73.2999 24.4826 73.6748 23.5777 73.6748 22.6342C73.6748 21.6906 73.2999 20.7858 72.6328 20.1185C71.9657 19.4514 71.0607 19.0767 70.1172 19.0765H60.6289Z" fill="#4E3117"/>
<path d="M73.5986 0.317749L73.4264 2.31032L73.4313 2.31074L73.5986 0.317749ZM80.6104 2.12048L81.5477 0.353719L81.5457 0.352691L80.6104 2.12048ZM88.3672 10.1478L86.5694 11.0241L86.5705 11.0264L88.3672 10.1478ZM90.0752 17.2972L88.0813 17.4531L88.0813 17.4534L90.0752 17.2972ZM90.2793 27.1263H88.2793H90.2793ZM90.2793 75.0746H92.2793H90.2793ZM90.0703 84.8949L88.0767 84.7348L88.0764 84.7393L90.0703 84.8949ZM88.3623 92.0482L86.5671 91.1665L86.5643 91.1724L88.3623 92.0482ZM80.6104 100.076L81.5457 101.843L81.5484 101.842L80.6104 100.076ZM73.5986 101.883L73.7373 103.878L73.7533 103.877L73.7692 103.876L73.5986 101.883ZM66.5586 102.096H64.5586V104.079L66.5411 104.096L66.5586 102.096ZM66.5586 67.7025H64.5586H66.5586ZM62.7373 58.4769L64.1515 57.0627L64.1515 57.0627L62.7373 58.4769ZM53.5127 54.6566L53.5127 52.6566H53.5127V54.6566ZM48.7686 54.6566V52.6566H48.7685L48.7686 54.6566ZM39.5439 58.4769L38.1298 57.0627L38.1297 57.0627L39.5439 58.4769ZM35.7227 102.096L35.7158 104.096L37.7227 104.103V102.096H35.7227ZM28.6826 101.878L28.8554 99.8858L28.8499 99.8853L28.6826 101.878ZM21.6709 100.076L20.7336 101.842L20.7355 101.843L21.6709 100.076ZM13.9141 92.0482L15.7119 91.172L15.7108 91.1697L13.9141 92.0482ZM12.2061 84.8998L10.2122 85.056L10.2124 85.0591L12.2061 84.8998ZM12.002 27.1263H10.002H12.002ZM12.2109 17.2972L14.2045 17.457L14.2049 17.4531L12.2109 17.2972ZM13.9189 10.1478L15.7141 11.0296L15.7171 11.0233L13.9189 10.1478ZM21.666 2.12048L20.7323 0.351826L20.7273 0.354474L21.666 2.12048ZM28.6875 0.313843L28.5186 -1.67902L28.5172 -1.67889L28.6875 0.313843ZM38.1748 0.0999756V-1.90002V0.0999756ZM53.5127 61.7719L53.5128 59.7719H53.5127V61.7719ZM59.4424 102.096V104.096H61.4424V102.096H59.4424ZM42.8389 102.096H40.8389V104.096H42.8389V102.096ZM32.1641 38.0521V36.0521H32.1638L32.1641 38.0521ZM29.6484 39.0941L28.2342 37.6799L28.2342 37.6799L29.6484 39.0941ZM28.6064 41.6097L26.6064 41.6095V41.6097H28.6064ZM29.6484 44.1263L28.2342 45.5406L28.2342 45.5406L29.6484 44.1263ZM32.1641 45.1683L32.1638 47.1683H32.1641V45.1683ZM44.168 44.1263L45.582 45.5408L45.5822 45.5406L44.168 44.1263ZM45.2109 41.6097H47.2109V41.6095L45.2109 41.6097ZM44.168 39.0941L45.5822 37.6799L45.582 37.6797L44.168 39.0941ZM58.1123 39.0941L56.6981 37.6799L56.698 37.68L58.1123 39.0941ZM57.0703 41.6097L55.0703 41.6095V41.6097H57.0703ZM58.1123 44.1263L56.698 45.5405L56.6981 45.5406L58.1123 44.1263ZM70.1172 45.1683V47.1683H70.1175L70.1172 45.1683ZM72.6328 44.1263L74.047 45.5406L74.047 45.5406L72.6328 44.1263ZM73.6748 41.6097H75.6748V41.6095L73.6748 41.6097ZM72.6328 39.0941L74.047 37.6799L74.047 37.6799L72.6328 39.0941ZM70.1172 38.0521L70.1175 36.0521H70.1172V38.0521ZM32.1641 19.0765V17.0765H32.1638L32.1641 19.0765ZM29.6484 20.1185L28.2342 18.7043L28.2341 18.7045L29.6484 20.1185ZM28.6064 22.6342H26.6064V22.6342L28.6064 22.6342ZM29.6484 25.1498L28.2341 26.5639L28.2342 26.564L29.6484 25.1498ZM32.1641 26.1918L32.1638 28.1918H32.1641V26.1918ZM41.6523 26.1918V28.1918V26.1918ZM44.168 25.1498L45.5821 26.5641L45.5822 26.564L44.168 25.1498ZM45.2109 22.6342L47.2109 22.6342V22.6342H45.2109ZM44.168 20.1185L45.5822 18.7043L45.5821 18.7043L44.168 20.1185ZM41.6523 19.0765V17.0765V19.0765ZM60.6289 19.0765V17.0765V19.0765ZM58.1123 20.1185L56.6981 18.7043L56.6979 18.7045L58.1123 20.1185ZM57.0703 22.6342H55.0703V22.6342L57.0703 22.6342ZM58.1123 25.1498L56.6979 26.5638L56.6981 26.564L58.1123 25.1498ZM60.6289 26.1918V28.1918V26.1918ZM70.1172 26.1918V28.1918H70.1175L70.1172 26.1918ZM72.6328 25.1498L74.047 26.564L74.0471 26.5639L72.6328 25.1498ZM73.6748 22.6342L75.6748 22.6342V22.6342H73.6748ZM72.6328 20.1185L74.0472 18.7045L74.047 18.7043L72.6328 20.1185ZM70.1172 19.0765L70.1175 17.0765H70.1172V19.0765ZM64.1104 0.0999756V2.09998C67.9899 2.09998 71.008 2.10123 73.4264 2.31032L73.5986 0.317749L73.7709 -1.67482C71.1417 -1.90214 67.9254 -1.90002 64.1104 -1.90002V0.0999756ZM73.5986 0.317749L73.4313 2.31074C75.9019 2.51812 77.896 2.94702 79.675 3.88828L80.6104 2.12048L81.5457 0.352691C79.0931 -0.945002 76.4946 -1.44619 73.7659 -1.67524L73.5986 0.317749ZM80.6104 2.12048L79.673 3.88725C82.6688 5.47655 85.0836 7.9756 86.5694 11.0241L88.3672 10.1478L90.165 9.27159C88.3085 5.46235 85.2911 2.3397 81.5477 0.35372L80.6104 2.12048ZM88.3672 10.1478L86.5705 11.0264C87.4676 12.8611 87.8821 14.9045 88.0813 17.4531L90.0752 17.2972L92.0691 17.1414C91.8508 14.3483 91.373 11.7421 90.1639 9.26928L88.3672 10.1478ZM90.0752 17.2972L88.0813 17.4534C88.2778 19.9622 88.2793 23.0888 88.2793 27.1263H90.2793H92.2793C92.2793 23.147 92.2805 19.841 92.0691 17.1411L90.0752 17.2972ZM90.2793 27.1263H88.2793V75.0746H90.2793H92.2793V27.1263H90.2793ZM90.2793 75.0746H88.2793C88.2793 79.1084 88.2776 82.2331 88.0767 84.7348L90.0703 84.8949L92.0639 85.055C92.2805 82.3573 92.2793 79.0487 92.2793 75.0746H90.2793ZM90.0703 84.8949L88.0764 84.7393C87.8769 87.2956 87.4665 89.3354 86.5671 91.1665L88.3623 92.0482L90.1575 92.9299C91.3736 90.4538 91.8462 87.845 92.0643 85.0505L90.0703 84.8949ZM88.3623 92.0482L86.5643 91.1724C85.0796 94.2202 82.6665 96.7192 79.6723 98.3092L80.6104 100.076L81.5484 101.842C85.2899 99.8551 88.3051 96.7325 90.1603 92.9241L88.3623 92.0482ZM80.6104 100.076L79.675 98.3078C77.8953 99.2495 75.9053 99.6784 73.428 99.8905L73.5986 101.883L73.7692 103.876C76.5008 103.642 79.0938 103.141 81.5457 101.843L80.6104 100.076ZM73.5986 101.883L73.46 99.888C71.1693 100.047 68.8729 100.116 66.5761 100.096L66.5586 102.096L66.5411 104.096C68.9414 104.117 71.342 104.045 73.7373 103.878L73.5986 101.883ZM66.5586 102.096H68.5586V67.7025H66.5586H64.5586V102.096H66.5586ZM66.5586 67.7025H68.5586C68.5586 63.7121 66.9732 59.8844 64.1515 57.0627L62.7373 58.4769L61.3231 59.8911C63.3946 61.9627 64.5586 64.7729 64.5586 67.7025H66.5586ZM62.7373 58.4769L64.1515 57.0627C61.3297 54.2411 57.5028 52.6566 53.5127 52.6566L53.5127 54.6566L53.5127 56.6566C56.4423 56.6566 59.2518 57.82 61.3231 59.8912L62.7373 58.4769ZM53.5127 54.6566V52.6566H48.7686V54.6566V56.6566H53.5127V54.6566ZM48.7686 54.6566L48.7685 52.6566C44.7785 52.6566 40.9515 54.2411 38.1298 57.0627L39.5439 58.4769L40.9581 59.8912C43.0295 57.82 45.839 56.6566 48.7686 56.6566L48.7686 54.6566ZM39.5439 58.4769L38.1297 57.0627C35.308 59.8844 33.7227 63.7121 33.7227 67.7025H35.7227H37.7227C37.7227 64.7729 38.8866 61.9627 40.9582 59.8911L39.5439 58.4769ZM35.7227 67.7025H33.7227V102.096H35.7227H37.7227V67.7025H35.7227ZM35.7227 102.096L35.7296 100.096C32.9762 100.087 30.7319 100.049 28.8554 99.8858L28.6826 101.878L28.5098 103.871C30.5708 104.05 32.9663 104.087 35.7158 104.096L35.7227 102.096ZM28.6826 101.878L28.8499 99.8853C26.3793 99.6779 24.3852 99.2491 22.6063 98.3078L21.6709 100.076L20.7355 101.843C23.1881 103.141 25.7866 103.642 28.5153 103.871L28.6826 101.878ZM21.6709 100.076L22.6082 98.3088C19.6125 96.7195 17.1977 94.2204 15.7119 91.172L13.9141 92.0482L12.1162 92.9245C13.9728 96.7337 16.9901 99.8563 20.7336 101.842L21.6709 100.076ZM13.9141 92.0482L15.7108 91.1697C14.8144 89.3364 14.4038 87.2943 14.1997 84.7404L12.2061 84.8998L10.2124 85.0591C10.4352 87.8464 10.9077 90.4528 12.1173 92.9267L13.9141 92.0482ZM12.2061 84.8998L14.1999 84.7436C14.0034 82.2348 14.002 79.1076 14.002 75.0697H12.002H10.002C10.002 79.0493 10.0007 82.3559 10.2122 85.056L12.2061 84.8998ZM12.002 75.0697H14.002V27.1263H12.002H10.002V75.0697H12.002ZM12.002 27.1263H14.002C14.002 23.0882 14.0037 19.9636 14.2045 17.457L12.2109 17.2972L10.2173 17.1375C10.0008 19.8396 10.002 23.1476 10.002 27.1263H12.002ZM12.2109 17.2972L14.2049 17.4531C14.4043 14.9012 14.8146 12.8609 15.7141 11.0296L13.9189 10.1478L12.1238 9.26608C10.9075 11.7423 10.4351 14.3515 10.217 17.1414L12.2109 17.2972ZM13.9189 10.1478L15.7171 11.0233C17.2008 7.97605 19.6122 5.47719 22.6047 3.88649L21.666 2.12048L20.7273 0.354474C16.9877 2.34226 13.9745 5.46476 12.1207 9.27234L13.9189 10.1478ZM21.666 2.12048L22.5998 3.88913C24.3846 2.94683 26.3757 2.51869 28.8578 2.30658L28.6875 0.313843L28.5172 -1.67889C25.7811 -1.44508 23.1884 -0.944878 20.7323 0.351833L21.666 2.12048ZM28.6875 0.313843L28.8564 2.3067C31.272 2.10201 34.2918 2.09998 38.1748 2.09998V0.0999756V-1.90002C34.3542 -1.90002 31.1409 -1.90121 28.5186 -1.67902L28.6875 0.313843ZM38.1748 0.0999756V2.09998H64.1104V0.0999756V-1.90002H38.1748V0.0999756ZM53.5127 61.7719L53.5126 63.7719C55.681 63.7719 57.4424 65.5334 57.4424 67.7025H59.4424H61.4424C61.4424 63.325 57.8909 59.772 53.5128 59.7719L53.5127 61.7719ZM59.4424 67.7025H57.4424V102.096H59.4424H61.4424V67.7025H59.4424ZM59.4424 102.096V100.096H42.8389V102.096V104.096H59.4424V102.096ZM42.8389 102.096H44.8389V67.7025H42.8389H40.8389V102.096H42.8389ZM42.8389 67.7025H44.8389C44.8389 65.5333 46.6002 63.7719 48.7686 63.7719V61.7719V59.7719C44.3902 59.7719 40.8389 63.325 40.8389 67.7025H42.8389ZM48.7686 61.7719V63.7719H53.5127V61.7719V59.7719H48.7686V61.7719ZM32.1641 38.0521L32.1638 36.0521C30.6903 36.0523 29.2766 36.6375 28.2342 37.6799L29.6484 39.0941L31.0626 40.5083C31.3546 40.2164 31.7509 40.0522 32.1643 40.0521L32.1641 38.0521ZM29.6484 39.0941L28.2342 37.6799C27.1919 38.7223 26.6066 40.136 26.6064 41.6095L28.6064 41.6097L30.6064 41.61C30.6065 41.1966 30.7707 40.8003 31.0627 40.5083L29.6484 39.0941ZM28.6064 41.6097H26.6064C26.6064 43.0832 27.1915 44.4978 28.2342 45.5406L29.6484 44.1263L31.0627 42.7121C30.7709 42.4204 30.6064 42.0236 30.6064 41.6097H28.6064ZM29.6484 44.1263L28.2342 45.5406C29.2766 46.5829 30.6903 47.1682 32.1638 47.1683L32.1641 45.1683L32.1643 43.1683C31.7509 43.1683 31.3546 43.0041 31.0626 42.7121L29.6484 44.1263ZM32.1641 45.1683V47.1683H41.6523V45.1683V43.1683H32.1641V45.1683ZM41.6523 45.1683V47.1683C43.1264 47.1683 44.5399 46.5825 45.582 45.5408L44.168 44.1263L42.754 42.7119C42.4616 43.0042 42.0652 43.1683 41.6523 43.1683V45.1683ZM44.168 44.1263L45.5822 45.5406C46.6239 44.4988 47.2109 43.0846 47.2109 41.6097H45.2109H43.2109C43.2109 42.0222 43.0465 42.4194 42.7538 42.7121L44.168 44.1263ZM45.2109 41.6097L47.2109 41.6095C47.2108 40.1345 46.6236 38.7213 45.5822 37.6799L44.168 39.0941L42.7538 40.5083C43.0467 40.8013 43.2109 41.198 43.2109 41.61L45.2109 41.6097ZM44.168 39.0941L45.582 37.6797C44.5399 36.6379 43.1264 36.0521 41.6523 36.0521V38.0521V40.0521C42.0652 40.0521 42.4616 40.2162 42.7539 40.5085L44.168 39.0941ZM41.6523 38.0521V36.0521H32.1641V38.0521V40.0521H41.6523V38.0521ZM60.6289 38.0521V36.0521C59.1554 36.0521 57.7408 36.6371 56.6981 37.6799L58.1123 39.0941L59.5265 40.5083C59.8183 40.2166 60.2151 40.0521 60.6289 40.0521V38.0521ZM58.1123 39.0941L56.698 37.68C55.6559 38.7222 55.0705 40.1359 55.0703 41.6095L57.0703 41.6097L59.0703 41.61C59.0704 41.1967 59.2346 40.8003 59.5266 40.5083L58.1123 39.0941ZM57.0703 41.6097H55.0703C55.0703 43.0832 55.6554 44.4978 56.698 45.5405L58.1123 44.1263L59.5266 42.7122C59.2348 42.4204 59.0703 42.0234 59.0703 41.6097H57.0703ZM58.1123 44.1263L56.6981 45.5406C57.7408 46.5833 59.1554 47.1683 60.6289 47.1683V45.1683V43.1683C60.2151 43.1683 59.8183 43.0039 59.5265 42.7121L58.1123 44.1263ZM60.6289 45.1683V47.1683H70.1172V45.1683V43.1683H60.6289V45.1683ZM70.1172 45.1683L70.1175 47.1683C71.591 47.1681 73.0047 46.5829 74.047 45.5406L72.6328 44.1263L71.2186 42.7121C70.9267 43.004 70.5303 43.1683 70.1169 43.1683L70.1172 45.1683ZM72.6328 44.1263L74.047 45.5406C75.0898 44.4978 75.6748 43.0832 75.6748 41.6097H73.6748H71.6748C71.6748 42.0236 71.5104 42.4204 71.2186 42.7121L72.6328 44.1263ZM73.6748 41.6097L75.6748 41.6095C75.6746 40.136 75.0894 38.7223 74.047 37.6799L72.6328 39.0941L71.2186 40.5083C71.5105 40.8003 71.6748 41.1966 71.6748 41.61L73.6748 41.6097ZM72.6328 39.0941L74.047 37.6799C73.0047 36.6375 71.591 36.0523 70.1175 36.0521L70.1172 38.0521L70.1169 40.0521C70.5304 40.0522 70.9267 40.2164 71.2186 40.5083L72.6328 39.0941ZM70.1172 38.0521V36.0521H60.6289V38.0521V40.0521H70.1172V38.0521ZM32.1641 19.0765L32.1638 17.0765C30.6903 17.0767 29.2766 17.6619 28.2342 18.7043L29.6484 20.1185L31.0627 21.5327C31.3546 21.2408 31.7509 21.0766 32.1643 21.0765L32.1641 19.0765ZM29.6484 20.1185L28.2341 18.7045C27.1921 19.7466 26.6064 21.1601 26.6064 22.6342H28.6064H30.6064C30.6064 22.2212 30.7705 21.8249 31.0628 21.5326L29.6484 20.1185ZM28.6064 22.6342L26.6064 22.6342C26.6065 24.1082 27.1921 25.5217 28.2341 26.5639L29.6484 25.1498L31.0628 23.7357C30.7706 23.4434 30.6065 23.0472 30.6064 22.6341L28.6064 22.6342ZM29.6484 25.1498L28.2342 26.564C29.2766 27.6064 30.6903 28.1916 32.1638 28.1918L32.1641 26.1918L32.1643 24.1918C31.7509 24.1917 31.3546 24.0275 31.0627 23.7356L29.6484 25.1498ZM32.1641 26.1918V28.1918H41.6523V26.1918V24.1918H32.1641V26.1918ZM41.6523 26.1918V28.1918C43.1264 28.1918 44.5399 27.6062 45.5821 26.5641L44.168 25.1498L42.7538 23.7355C42.4616 24.0277 42.0654 24.1918 41.6523 24.1918V26.1918ZM44.168 25.1498L45.5822 26.564C46.6235 25.5226 47.2109 24.1096 47.2109 22.6342L45.2109 22.6342L43.2109 22.6341C43.2109 23.046 43.0469 23.4424 42.7538 23.7356L44.168 25.1498ZM45.2109 22.6342H47.2109C47.2109 21.1587 46.6235 19.7457 45.5822 18.7043L44.168 20.1185L42.7538 21.5327C43.0469 21.8259 43.2109 22.2223 43.2109 22.6342H45.2109ZM44.168 20.1185L45.5821 18.7043C44.5399 17.662 43.1264 17.0765 41.6523 17.0765V19.0765V21.0765C42.0655 21.0765 42.4616 21.2406 42.7538 21.5328L44.168 20.1185ZM41.6523 19.0765V17.0765H32.1641V19.0765V21.0765H41.6523V19.0765ZM60.6289 19.0765V17.0765C59.1554 17.0765 57.7408 17.6616 56.6981 18.7043L58.1123 20.1185L59.5265 21.5327C59.8183 21.241 60.2151 21.0765 60.6289 21.0765V19.0765ZM58.1123 20.1185L56.6979 18.7045C55.6561 19.7466 55.0703 21.1601 55.0703 22.6342H57.0703H59.0703C59.0703 22.2213 59.2344 21.8249 59.5267 21.5325L58.1123 20.1185ZM57.0703 22.6342L55.0703 22.6342C55.0703 24.1082 55.6561 25.5217 56.6979 26.5638L58.1123 25.1498L59.5267 23.7358C59.2345 23.4434 59.0703 23.047 59.0703 22.6341L57.0703 22.6342ZM58.1123 25.1498L56.6981 26.564C57.7408 27.6068 59.1554 28.1918 60.6289 28.1918V26.1918V24.1918C60.2151 24.1918 59.8183 24.0273 59.5265 23.7356L58.1123 25.1498ZM60.6289 26.1918V28.1918H70.1172V26.1918V24.1918H60.6289V26.1918ZM70.1172 26.1918L70.1175 28.1918C71.591 28.1916 73.0047 27.6064 74.047 26.564L72.6328 25.1498L71.2186 23.7356C70.9267 24.0275 70.5304 24.1917 70.1169 24.1918L70.1172 26.1918ZM72.6328 25.1498L74.0471 26.5639C75.0892 25.5217 75.6748 24.1082 75.6748 22.6342L73.6748 22.6342L71.6748 22.6341C71.6748 23.0472 71.5107 23.4434 71.2185 23.7357L72.6328 25.1498ZM73.6748 22.6342H75.6748C75.6748 21.1601 75.0891 19.7466 74.0472 18.7045L72.6328 20.1185L71.2184 21.5326C71.5107 21.8249 71.6748 22.2212 71.6748 22.6342H73.6748ZM72.6328 20.1185L74.047 18.7043C73.0047 17.6619 71.591 17.0767 70.1175 17.0765L70.1172 19.0765L70.1169 21.0765C70.5304 21.0766 70.9267 21.2408 71.2186 21.5327L72.6328 20.1185ZM70.1172 19.0765V17.0765H60.6289V19.0765V21.0765H70.1172V19.0765Z" fill="url(#paint0_linear_813_493)" mask="url(#path-1-inside-1_813_493)"/>
<defs>
<linearGradient id="paint0_linear_813_493" x1="51.2836" y1="102.1" x2="45.355" y2="0.429002" gradientUnits="userSpaceOnUse">
<stop stop-color="#FEE69B"/>
<stop offset="1" stop-color="#FEE69B" stop-opacity="0"/>
</linearGradient>
</defs>
</svg>
