<svg width="102" height="103" viewBox="0 0 102 103" fill="none" xmlns="http://www.w3.org/2000/svg">
<path d="M50.999 4.1003C53.0451 4.1003 55.0335 4.7825 56.6484 6.03877L99.4053 39.2946C102.492 41.6965 100.789 46.6394 96.8828 46.6394H90.7988V88.4392C90.7987 90.8789 89.8296 93.2188 88.1045 94.944C86.3792 96.6693 84.0386 97.6384 81.5986 97.6384H57.0996V62.9392C57.0996 61.3214 56.4564 59.7696 55.3125 58.6257C54.1686 57.4819 52.6167 56.8396 50.999 56.8396C49.3816 56.8397 47.8303 57.4821 46.6865 58.6257C45.5426 59.7696 44.8995 61.3214 44.8994 62.9392V97.6384H20.4004C17.9605 97.6384 15.6198 96.6693 13.8945 94.944C12.1694 93.2188 11.2003 90.8789 11.2002 88.4392V46.6394H5.11621C1.21 46.6394 -0.492667 41.6987 2.59473 39.2888L2.59375 39.2878L45.3506 6.03877C46.9654 4.7826 48.9531 4.1004 50.999 4.1003Z" fill="#4E3117" stroke="url(#paint0_linear_813_435)" stroke-width="2"/>
<defs>
<linearGradient id="paint0_linear_813_435" x1="51.1863" y1="98.6386" x2="47.1882" y2="3.25226" gradientUnits="userSpaceOnUse">
<stop stop-color="#FEE69B"/>
<stop offset="1" stop-color="#FEE69B" stop-opacity="0"/>
</linearGradient>
</defs>
</svg>
