<svg width="62" height="62" viewBox="0 0 62 62" fill="none" xmlns="http://www.w3.org/2000/svg">
<path d="M6.2002 29.2873H14.5078V58.3029H6.2002C4.81895 58.3029 3.49427 57.7542 2.51758 56.7775C1.54095 55.8008 0.992188 54.4761 0.992188 53.0949V34.4953C0.992187 33.114 1.54089 31.7893 2.51758 30.8127C3.49426 29.836 4.81899 29.2873 6.2002 29.2873ZM55.7998 19.9875C57.181 19.9875 58.5057 20.5362 59.4824 21.5129C60.4591 22.4895 61.0078 23.8142 61.0078 25.1955V53.0949C61.0078 54.4761 60.4591 55.8008 59.4824 56.7775C58.5057 57.7542 57.181 58.3029 55.7998 58.3029H47.4922V19.9875H55.7998ZM34.1006 4.48746C35.4144 4.48712 36.6802 4.98279 37.6436 5.87614C38.6048 6.76757 39.1935 7.98912 39.2939 9.29606L39.3076 9.69547V58.3029H22.6924V9.6945C22.6921 8.38088 23.1879 7.11578 24.0811 6.1525C24.9726 5.19113 26.1939 4.60059 27.501 4.50016L27.9033 4.48746H34.1006Z" fill="#4E3117" stroke="url(#paint0_linear_813_444)" stroke-width="1.984"/>
<defs>
<linearGradient id="paint0_linear_813_444" x1="31.1132" y1="59.2953" x2="28.8692" y2="3.57653" gradientUnits="userSpaceOnUse">
<stop stop-color="#FEE69B"/>
<stop offset="1" stop-color="#FEE69B" stop-opacity="0"/>
</linearGradient>
</defs>
</svg>
