<svg width="62" height="62" viewBox="0 0 62 62" fill="none" xmlns="http://www.w3.org/2000/svg">
<path d="M20.5186 2.41624C21.1617 2.18593 21.8513 2.11616 22.5273 2.2141C23.2034 2.31205 23.8452 2.57441 24.3965 2.97777L24.4004 2.9807C26.3801 4.40348 28.6408 5.21605 31 5.21605C33.3596 5.21605 35.6196 4.39957 37.6016 2.9807L37.6064 2.97777C38.1574 2.57487 38.7991 2.31302 39.4746 2.21507C40.1501 2.11718 40.8397 2.18635 41.4824 2.41624V2.41527C44.7937 3.62945 47.8691 5.40958 50.5723 7.67503C51.0914 8.11632 51.4945 8.67797 51.7471 9.31078C51.9999 9.9444 52.0937 10.6305 52.0205 11.3088V11.3127C51.7792 13.7362 52.2025 16.0969 53.3838 18.1399C54.5649 20.1856 56.3986 21.7372 58.6201 22.7385L58.623 22.7395C59.2478 23.016 59.7955 23.4417 60.2178 23.9787C60.64 24.5158 60.9247 25.1482 61.0459 25.8205C61.6515 29.2904 61.6517 32.839 61.0459 36.3088L61.0449 36.3098C60.8049 37.6956 59.8986 38.7342 58.835 39.2883L58.6201 39.3928C56.3997 40.3937 54.5659 41.9409 53.3877 43.9866C52.2028 46.0299 51.7791 48.3911 52.0205 50.8147V50.8157C52.1488 52.0786 51.7209 53.4906 50.5732 54.4514L50.5723 54.4524C47.8682 56.7186 44.7912 58.4979 41.4785 59.7121C40.0723 60.2267 38.6324 59.8892 37.5996 59.1467C35.62 57.724 33.3624 56.9114 31 56.9114C28.6378 56.9114 26.3772 57.7239 24.3975 59.1467L24.3936 59.1496C23.8426 59.5525 23.2009 59.8144 22.5254 59.9123C21.8499 60.0102 21.1603 59.9411 20.5176 59.7112H20.5166C17.2057 58.497 14.1305 56.7176 11.4277 54.4524L11.4268 54.4514C10.2797 53.4911 9.8539 52.0762 9.97949 50.8147C10.2209 48.3904 9.79375 46.0327 8.61621 43.9875L8.38672 43.6096C7.20407 41.7527 5.46215 40.3278 3.37891 39.3918C2.22135 38.8668 1.21096 37.7873 0.955078 36.3098L0.954102 36.3088C0.348311 32.839 0.348528 29.2904 0.954102 25.8205C1.07535 25.1482 1.35999 24.5158 1.78223 23.9787C2.20452 23.4417 2.75217 23.016 3.37695 22.7395L3.37988 22.7385C5.60102 21.7374 7.43419 20.1857 8.6123 18.1399L8.61328 18.1409C9.7945 16.0982 10.2209 13.7368 9.97949 11.3127V11.3088L9.95996 11.0539C9.93239 10.4596 10.0317 9.86521 10.2529 9.31078C10.5055 8.67797 10.9086 8.11632 11.4277 7.67503C14.1309 5.40958 17.2063 3.62945 20.5176 2.41527L20.5186 2.41624ZM31 21.2649C28.4011 21.2649 25.909 22.2973 24.0713 24.135C22.2336 25.9727 21.2012 28.4648 21.2012 31.0637C21.2012 33.6626 22.2336 36.1547 24.0713 37.9924C25.909 39.8301 28.4011 40.8625 31 40.8625C33.5989 40.8625 36.091 39.8301 37.9287 37.9924C39.7664 36.1547 40.7988 33.6626 40.7988 31.0637C40.7988 28.4648 39.7664 25.9727 37.9287 24.135C36.091 22.2973 33.5989 21.2649 31 21.2649Z" fill="#4E3117" stroke="url(#paint0_linear_813_462)"/>
<defs>
<linearGradient id="paint0_linear_813_462" x1="31.1132" y1="60.4598" x2="28.6228" y2="1.76719" gradientUnits="userSpaceOnUse">
<stop stop-color="#FEE69B"/>
<stop offset="1" stop-color="#FEE69B" stop-opacity="0"/>
</linearGradient>
</defs>
</svg>
