<svg width="62" height="62" viewBox="0 0 62 62" fill="none" xmlns="http://www.w3.org/2000/svg">
<path d="M28.7969 0.865265C30.0145 0.408831 31.3489 0.379995 32.5811 0.779327L32.8262 0.865265L54.6641 9.05472C55.7582 9.46488 56.7016 10.1988 57.3672 11.1592C58.0328 12.1197 58.3888 13.2611 58.3887 14.4297V31.1602C58.3888 36.2817 56.963 41.3026 54.2705 45.6592C51.5781 50.0157 47.7252 53.5368 43.1445 55.8272L32.6816 61.0586C32.1012 61.349 31.4606 61.5 30.8115 61.5C30.1626 61.5 29.5227 61.3488 28.9424 61.0586L18.4785 55.8272C13.8978 53.5368 10.045 50.0158 7.35254 45.6592C4.66008 41.3026 3.23426 36.2817 3.23438 31.1602V14.4297C3.23423 13.2611 3.59121 12.1197 4.25684 11.1592C4.92238 10.199 5.86503 9.46486 6.95898 9.05472L28.7969 0.865265Z" fill="#4E3117" stroke="url(#paint0_linear_813_482)"/>
<defs>
<linearGradient id="paint0_linear_813_482" x1="30.9143" y1="62" x2="27.8579" y2="0.140902" gradientUnits="userSpaceOnUse">
<stop stop-color="#FEE69B"/>
<stop offset="1" stop-color="#FEE69B" stop-opacity="0"/>
</linearGradient>
</defs>
</svg>
