<svg width="62" height="62" viewBox="0 0 62 62" fill="none" xmlns="http://www.w3.org/2000/svg">
<path d="M61.5 29.4486V43.9486H57.333V29.4486H61.5ZM4.66699 29.4486V43.9486H0.5V29.4486H4.66699ZM23.25 32.3236C22.0897 32.3236 20.9767 32.7844 20.1562 33.6049C19.3359 34.4253 18.875 35.5384 18.875 36.6986C18.8751 37.8589 19.3358 38.972 20.1562 39.7924C20.9767 40.6128 22.0897 41.0736 23.25 41.0736C24.4103 41.0736 25.5233 40.6128 26.3438 39.7924C27.1642 38.972 27.6249 37.8589 27.625 36.6986C27.625 35.5384 27.1641 34.4253 26.3438 33.6049C25.5233 32.7844 24.4103 32.3236 23.25 32.3236ZM38.75 32.3236C37.5897 32.3236 36.4767 32.7844 35.6562 33.6049C34.8359 34.4253 34.375 35.5384 34.375 36.6986C34.3751 37.8589 34.8358 38.972 35.6562 39.7924C36.4767 40.6128 37.5897 41.0736 38.75 41.0736C39.9103 41.0736 41.0233 40.6128 41.8438 39.7924C42.6642 38.972 43.1249 37.8589 43.125 36.6986C43.125 35.5384 42.6641 34.4253 41.8438 33.6049C41.0233 32.7844 39.9103 32.3236 38.75 32.3236ZM28.917 10.9467L28.75 10.7973C28.3304 10.422 28.0117 9.94748 27.8223 9.41737C27.6328 8.8873 27.5784 8.3183 27.665 7.7621C27.7517 7.20587 27.9766 6.68013 28.3184 6.2328C28.6601 5.78548 29.1082 5.43041 29.6221 5.20058C30.136 4.97075 30.6994 4.87292 31.2607 4.9164C31.822 4.95989 32.3636 5.14337 32.8359 5.4496C33.3083 5.75583 33.697 6.17567 33.9658 6.6703C34.2345 7.16483 34.375 7.71883 34.375 8.28163C34.375 9.28032 33.9416 10.1776 33.25 10.7973L33.083 10.9467V16.5316H46.5C48.4228 16.5316 50.2673 17.296 51.627 18.6557C52.9863 20.0152 53.75 21.8591 53.75 23.7816V49.6146C53.75 51.5374 52.9865 53.382 51.627 54.7416C50.2673 56.1012 48.4228 56.8646 46.5 56.8646H15.5C13.5772 56.8646 11.7327 56.1012 10.373 54.7416C9.01354 53.382 8.25 51.5374 8.25 49.6146V23.7816C8.25002 21.8591 9.01371 20.0152 10.373 18.6557C11.7327 17.296 13.5772 16.5316 15.5 16.5316H28.917V10.9467Z" fill="#4E3117" stroke="url(#paint0_linear_813_453)"/>
<defs>
<linearGradient id="paint0_linear_813_453" x1="31.1132" y1="57.365" x2="29.0916" y2="4.47525" gradientUnits="userSpaceOnUse">
<stop stop-color="#FEE69B"/>
<stop offset="1" stop-color="#FEE69B" stop-opacity="0"/>
</linearGradient>
</defs>
</svg>
