<svg width="62" height="62" viewBox="0 0 62 62" fill="none" xmlns="http://www.w3.org/2000/svg">
<path d="M27.459 6.49527C29.0315 3.77002 32.9652 3.76999 34.541 6.49625V6.49527L60.9521 52.2404C61.3109 52.8619 61.5 53.5667 61.5 54.2843C61.5 55.0019 61.3109 55.7068 60.9521 56.3283C60.5933 56.9498 60.0775 57.4665 59.4561 57.8253C58.8345 58.1842 58.1288 58.3732 57.4111 58.3732H4.58887C3.87119 58.3732 3.16547 58.1842 2.54395 57.8253C1.92248 57.4665 1.40666 56.9498 1.04785 56.3283C0.689111 55.7068 0.499995 55.0019 0.5 54.2843C0.50002 53.5667 0.68907 52.8619 1.04785 52.2404L27.459 6.49527ZM31 42.0011C30.0562 42.0011 29.1508 42.3758 28.4834 43.0431C27.816 43.7105 27.4415 44.616 27.4414 45.5597C27.4414 46.5035 27.8161 47.4089 28.4834 48.0763C29.1508 48.7438 30.0561 49.1193 31 49.1193C31.9439 49.1193 32.8492 48.7438 33.5166 48.0763C34.1839 47.4089 34.5586 46.5035 34.5586 45.5597C34.5585 44.616 34.184 43.7105 33.5166 43.0431C32.8492 42.3758 31.9438 42.0011 31 42.0011ZM31 20.588C30.1283 20.5882 29.2871 20.9083 28.6357 21.4875C27.9843 22.0667 27.5678 22.8649 27.4658 23.7306L27.4639 23.7453L27.4629 23.7589L27.4414 24.1173V36.3839C27.4425 37.2909 27.7896 38.1629 28.4121 38.8224C29.0347 39.4819 29.8856 39.8795 30.791 39.9328C31.6966 39.9859 32.5886 39.6908 33.2842 39.1086C33.9797 38.5263 34.427 37.7007 34.5342 36.8L34.5361 36.7853L34.5371 36.7707L34.5586 36.4132V24.1466C34.5585 23.2028 34.184 22.2974 33.5166 21.63C32.8492 20.9627 31.9438 20.588 31 20.588Z" fill="#4E3117" stroke="url(#paint0_linear_813_471)"/>
<defs>
<linearGradient id="paint0_linear_813_471" x1="31.1132" y1="58.873" x2="28.9392" y2="4.02853" gradientUnits="userSpaceOnUse">
<stop stop-color="#FEE69B"/>
<stop offset="1" stop-color="#FEE69B" stop-opacity="0"/>
</linearGradient>
</defs>
</svg>
