<svg width="62" height="63" viewBox="0 0 62 63" fill="none" xmlns="http://www.w3.org/2000/svg">
<g clip-path="url(#clip0_813_1570)">
<path d="M5.16699 53.167H21.0566C22.4287 53.167 23.7335 53.7708 24.6201 54.8184L25.2578 55.5732L25.4072 55.75H36.5898L36.7393 55.5732L37.3779 54.8184C38.2645 53.7711 39.5686 53.1671 40.9404 53.167H56.833C59.4113 53.167 61.4998 55.2547 61.5 57.833C61.5 60.4114 59.4114 62.5 56.833 62.5H5.16699C2.58855 62.5 0.5 60.4114 0.5 57.833C0.500175 55.2547 2.58866 53.167 5.16699 53.167ZM16.7939 17H30.6357C30.9261 18.9489 31.6871 20.746 32.8008 22.2773C31.051 23.5735 30.0741 25.8547 30.6855 28.293C31.1895 30.303 32.8697 31.9162 34.8896 32.3594C38.1349 33.0717 41.0554 30.9911 41.7012 28.0557L42.5791 28.7793V28.7803C44.3449 30.3526 46.6208 31.2158 48.9854 31.2158C51.3072 31.2158 53.5399 30.3799 55.1221 28.9697L56.252 28.0332C56.3017 28.4871 56.3311 28.9484 56.3311 29.417V47.1826C55.6574 47.0697 54.9626 47 54.2471 47H40.9404C38.347 47.0001 35.868 47.9268 33.9229 49.583H28.0771C26.1321 47.9268 23.6556 47.0001 21.0596 47H7.75293C7.0374 47 6.34258 47.0697 5.66895 47.1826V28.125C5.66895 21.9817 10.6506 17.0002 16.7939 17ZM36.1689 34.083C32.7433 34.0831 29.7775 36.0343 28.4189 38.8652C27.0602 36.0363 24.0946 34.083 20.6689 34.083C16.8689 34.0831 13.6344 36.4838 12.5322 39.8232C12.0267 41.3539 13.2755 42.833 14.8389 42.833H26.502C27.2834 42.833 27.977 42.4671 28.4189 41.9121C28.8609 42.4675 29.5543 42.833 30.3359 42.833H42C43.5633 42.8329 44.8121 41.3538 44.3066 39.8232C43.2045 36.4866 39.9693 34.083 36.1689 34.083ZM20.667 21.167C17.5364 21.167 15.0002 23.7024 15 26.833C15 29.9637 17.5363 32.5 20.667 32.5C23.7976 32.4998 26.333 29.9636 26.333 26.833C26.3328 23.7025 23.7975 21.1672 20.667 21.167ZM42.625 1.5H55.542C58.8254 1.50018 61.4998 4.17458 61.5 7.45801V15.208C61.5 18.4916 58.8255 21.1668 55.542 21.167H54.876L54.7373 21.2812L51.1855 24.2217L51.1777 24.2275L51.1709 24.2334C50.5667 24.7732 49.7838 25.0487 48.9805 25.0488C48.1606 25.0483 47.3359 24.7598 46.6777 24.1738L46.6641 24.1621L43.1816 21.2812L43.043 21.167H42.625C39.3413 21.167 36.667 18.4917 36.667 15.208V7.45801C36.6672 4.17447 39.3414 1.5 42.625 1.5Z" fill="#3D241B" stroke="url(#paint0_linear_813_1570)"/>
</g>
<defs>
<linearGradient id="paint0_linear_813_1570" x1="31.1132" y1="63" x2="28.3438" y2="1.11379" gradientUnits="userSpaceOnUse">
<stop stop-color="#FEE69B"/>
<stop offset="1" stop-color="#FEE69B" stop-opacity="0"/>
</linearGradient>
<clipPath id="clip0_813_1570">
<rect width="62" height="62" fill="white" transform="translate(0 1)"/>
</clipPath>
</defs>
</svg>
