<svg width="62" height="63" viewBox="0 0 62 63" fill="none" xmlns="http://www.w3.org/2000/svg">
<mask id="path-1-inside-1_813_1584" fill="white">
<path d="M21.4735 4.20788C19.6548 1.63244 17.1366 0.4719 14.4658 0.500516C11.9317 0.525953 9.46433 1.61018 7.40398 3.0537C5.30248 4.53321 3.51056 6.40938 2.12909 8.57659C0.825476 10.6401 -0.115673 13.0788 0.011509 15.4603C0.625163 26.9163 7.07013 39.1576 16.1223 48.2161C25.1682 57.2651 37.2473 63.5543 49.4441 62.3524C51.8351 62.1171 54.0958 60.8994 55.9431 59.3478C57.8538 57.7293 59.4149 55.7388 60.5312 53.4974C61.6123 51.2971 62.2577 48.7598 61.9016 46.2893C61.5328 43.7139 60.0924 41.4119 57.4438 39.8857C56.8951 39.5673 56.3524 39.2387 55.8159 38.9C55.339 38.6043 54.8303 38.2832 54.2134 37.9144C52.9535 37.1375 51.624 36.4797 50.2422 35.9494C48.8209 35.4311 47.1961 35.0909 45.5046 35.323C43.7527 35.5647 42.1247 36.3914 40.7162 37.873C39.632 39.0177 38.0358 39.3738 35.7911 38.7251C33.5081 38.0638 30.9391 36.4231 28.707 34.2038C26.475 31.9908 24.7866 29.4027 24.0649 27.0657C23.3526 24.751 23.6674 23.0499 24.7803 21.8767C26.2842 20.2933 27.0854 18.5318 27.254 16.6686C27.4193 14.8562 26.9678 13.152 26.3223 11.6639C25.3558 9.44143 23.7151 7.23164 22.4306 5.50832C22.1076 5.07746 21.7896 4.6429 21.4767 4.2047"/>
</mask>
<path d="M21.4735 4.20788C19.6548 1.63244 17.1366 0.4719 14.4658 0.500516C11.9317 0.525953 9.46433 1.61018 7.40398 3.0537C5.30248 4.53321 3.51056 6.40938 2.12909 8.57659C0.825476 10.6401 -0.115673 13.0788 0.011509 15.4603C0.625163 26.9163 7.07013 39.1576 16.1223 48.2161C25.1682 57.2651 37.2473 63.5543 49.4441 62.3524C51.8351 62.1171 54.0958 60.8994 55.9431 59.3478C57.8538 57.7293 59.4149 55.7388 60.5312 53.4974C61.6123 51.2971 62.2577 48.7598 61.9016 46.2893C61.5328 43.7139 60.0924 41.4119 57.4438 39.8857C56.8951 39.5673 56.3524 39.2387 55.8159 38.9C55.339 38.6043 54.8303 38.2832 54.2134 37.9144C52.9535 37.1375 51.624 36.4797 50.2422 35.9494C48.8209 35.4311 47.1961 35.0909 45.5046 35.323C43.7527 35.5647 42.1247 36.3914 40.7162 37.873C39.632 39.0177 38.0358 39.3738 35.7911 38.7251C33.5081 38.0638 30.9391 36.4231 28.707 34.2038C26.475 31.9908 24.7866 29.4027 24.0649 27.0657C23.3526 24.751 23.6674 23.0499 24.7803 21.8767C26.2842 20.2933 27.0854 18.5318 27.254 16.6686C27.4193 14.8562 26.9678 13.152 26.3223 11.6639C25.3558 9.44143 23.7151 7.23164 22.4306 5.50832C22.1076 5.07746 21.7896 4.6429 21.4767 4.2047" fill="#3D241B"/>
<path d="M14.4658 0.500516L14.4758 1.50047L14.4765 1.50046L14.4658 0.500516ZM7.40398 3.0537L6.83018 2.2347L6.82831 2.23602L7.40398 3.0537ZM2.12909 8.57659L1.28584 8.03906L1.28367 8.0425L2.12909 8.57659ZM0.011509 15.4603L-0.987068 15.5137L-0.987059 15.5138L0.011509 15.4603ZM16.1223 48.2161L15.415 48.923L15.4151 48.9231L16.1223 48.2161ZM49.4441 62.3524L49.3462 61.3572L49.346 61.3573L49.4441 62.3524ZM55.9431 59.3478L56.5863 60.1135L56.5894 60.1108L55.9431 59.3478ZM60.5312 53.4974L61.4263 53.9432L61.4287 53.9383L60.5312 53.4974ZM61.9016 46.2893L60.9117 46.4311L60.9118 46.432L61.9016 46.2893ZM57.4438 39.8857L56.942 40.7506L56.9446 40.7521L57.4438 39.8857ZM55.8159 38.9L56.3498 38.0544L56.3429 38.0501L55.8159 38.9ZM54.2134 37.9144L53.6885 38.7656L53.7002 38.7726L54.2134 37.9144ZM50.2422 35.9494L50.6004 35.0158L50.5926 35.0128L50.5847 35.0099L50.2422 35.9494ZM45.5046 35.323L45.3687 34.3323L45.368 34.3324L45.5046 35.323ZM40.7162 37.873L39.9914 37.184L39.9902 37.1853L40.7162 37.873ZM35.7911 38.7251L35.5128 39.6857L35.5135 39.6858L35.7911 38.7251ZM28.707 34.2038L29.4121 33.4947L29.4111 33.4937L28.707 34.2038ZM24.0649 27.0657L23.1091 27.3598L23.1094 27.3608L24.0649 27.0657ZM24.7803 21.8767L24.0552 21.188L24.0547 21.1885L24.7803 21.8767ZM27.254 16.6686L26.2581 16.5777L26.258 16.5785L27.254 16.6686ZM26.3223 11.6639L27.2398 11.266L27.2394 11.2651L26.3223 11.6639ZM22.4306 5.50832L23.2323 4.91069L23.2307 4.90853L22.4306 5.50832ZM21.4735 4.20788L22.2904 3.63104C20.2819 0.786908 17.4542 -0.53156 14.4551 -0.499427L14.4658 0.500516L14.4765 1.50046C16.819 1.47536 19.0277 2.47797 20.6567 4.78472L21.4735 4.20788ZM14.4658 0.500516L14.4557 -0.499434C11.6509 -0.47128 8.98872 0.722393 6.83018 2.23471L7.40398 3.0537L7.97778 3.87269C9.93994 2.49797 12.2124 1.52318 14.4758 1.50047L14.4658 0.500516ZM7.40398 3.0537L6.82831 2.23602C4.6202 3.79058 2.73739 5.76192 1.28584 8.03907L2.12909 8.57659L2.97234 9.11411C4.28373 7.05684 5.98475 5.27584 7.97965 3.87138L7.40398 3.0537ZM2.12909 8.57659L1.28367 8.0425C-0.0798227 10.2008 -1.12948 12.8471 -0.987068 15.5137L0.011509 15.4603L1.01009 15.407C0.898129 13.3106 1.73077 11.0794 2.97452 9.11068L2.12909 8.57659ZM0.011509 15.4603L-0.987059 15.5138C-0.356955 27.2769 6.23696 39.7385 15.415 48.923L16.1223 48.2161L16.8297 47.5093C7.90329 38.5766 1.60728 26.5557 1.01008 15.4068L0.011509 15.4603ZM16.1223 48.2161L15.4151 48.9231C24.5834 58.0946 36.941 64.5893 49.5421 63.3476L49.4441 62.3524L49.346 61.3573C37.5536 62.5193 25.7529 56.4357 16.8296 47.5091L16.1223 48.2161ZM49.4441 62.3524L49.542 63.3476C52.1985 63.0862 54.6432 61.7455 56.5863 60.1135L55.9431 59.3478L55.2999 58.582C53.5483 60.0533 51.4717 61.1481 49.3462 61.3572L49.4441 62.3524ZM55.9431 59.3478L56.5894 60.1108C58.6037 58.4046 60.2495 56.3061 61.4263 53.9432L60.5312 53.4974L59.6361 53.0516C58.5803 55.1714 57.1039 57.054 55.2968 58.5847L55.9431 59.3478ZM60.5312 53.4974L61.4287 53.9383C62.5673 51.6209 63.2849 48.8768 62.8914 46.1466L61.9016 46.2893L60.9118 46.432C61.2305 48.6429 60.6572 50.9733 59.6337 53.0564L60.5312 53.4974ZM61.9016 46.2893L62.8915 46.1475C62.479 43.2675 60.8574 40.6986 57.9431 39.0192L57.4438 39.8857L56.9446 40.7521C59.3274 42.1252 60.5865 44.1602 60.9117 46.4311L61.9016 46.2893ZM57.4438 39.8857L57.9457 39.0207C57.4077 38.7086 56.8757 38.3865 56.3498 38.0544L55.8159 38.9L55.2821 39.7456C55.8291 40.0909 56.3825 40.426 56.942 40.7506L57.4438 39.8857ZM55.8159 38.9L56.3429 38.0501C55.8734 37.7591 55.3526 37.4304 54.7266 37.0561L54.2134 37.9144L53.7002 38.7726C54.3079 39.136 54.8046 39.4496 55.289 39.7499L55.8159 38.9ZM54.2134 37.9144L54.7383 37.0632C53.4255 36.2538 52.0403 35.5683 50.6004 35.0158L50.2422 35.9494L49.8839 36.883C51.2078 37.3911 52.4815 38.0213 53.6886 38.7656L54.2134 37.9144ZM50.2422 35.9494L50.5847 35.0099C49.0725 34.4585 47.2762 34.0706 45.3687 34.3323L45.5046 35.323L45.6406 36.3137C47.1161 36.1113 48.5693 36.4038 49.8996 36.8889L50.2422 35.9494ZM45.5046 35.323L45.368 34.3324C43.3769 34.607 41.5457 35.549 39.9914 37.184L40.7162 37.873L41.441 38.562C42.7038 37.2337 44.1284 36.5223 45.6413 36.3136L45.5046 35.323ZM40.7162 37.873L39.9902 37.1853C39.2455 37.9715 38.086 38.3474 36.0687 37.7645L35.7911 38.7251L35.5135 39.6858C37.9857 40.4002 40.0184 40.0638 41.4422 38.5607L40.7162 37.873ZM35.7911 38.7251L36.0693 37.7646C33.9916 37.1627 31.5627 35.633 29.4121 33.4947L28.707 34.2038L28.0019 34.9129C30.3155 37.2133 33.0247 38.9649 35.5128 39.6857L35.7911 38.7251ZM28.707 34.2038L29.4111 33.4937C27.262 31.363 25.6814 28.911 25.0203 26.7706L24.0649 27.0657L23.1094 27.3608C23.8919 29.8944 25.6879 32.6187 28.0029 34.914L28.707 34.2038ZM24.0649 27.0657L25.0206 26.7716C24.3748 24.6728 24.7221 23.3911 25.5058 22.5649L24.7803 21.8767L24.0547 21.1885C22.6127 22.7088 22.3304 24.8292 23.1091 27.3598L24.0649 27.0657ZM24.7803 21.8767L25.5053 22.5653C27.1502 20.8336 28.0593 18.866 28.2499 16.7586L27.254 16.6686L26.258 16.5785C26.1116 18.1976 25.4182 19.7529 24.0552 21.188L24.7803 21.8767ZM27.254 16.6686L28.2498 16.7594C28.4354 14.7249 27.9256 12.8473 27.2398 11.266L26.3223 11.6639L25.4049 12.0619C26.0099 13.4567 26.4032 14.9876 26.2581 16.5777L27.254 16.6686ZM26.3223 11.6639L27.2394 11.2651C26.2186 8.91811 24.5035 6.61611 23.2323 4.91069L22.4306 5.50832L21.6288 6.10595C22.9267 7.84717 24.4929 9.96475 25.4053 12.0628L26.3223 11.6639ZM22.4306 5.50832L23.2307 4.90853C22.9124 4.48383 22.5989 4.05548 22.2905 3.62355L21.4767 4.2047L20.6629 4.78585C20.9803 5.23031 21.3028 5.67109 21.6304 6.10811L22.4306 5.50832Z" fill="url(#paint0_linear_813_1584)" mask="url(#path-1-inside-1_813_1584)"/>
<defs>
<linearGradient id="paint0_linear_813_1584" x1="31.1132" y1="62.4996" x2="28.3439" y2="0.613791" gradientUnits="userSpaceOnUse">
<stop stop-color="#FEE69B"/>
<stop offset="1" stop-color="#FEE69B" stop-opacity="0"/>
</linearGradient>
</defs>
</svg>
